<?xml version="1.0" encoding="utf-8" standalone="no"?>
<!DOCTYPE svg PUBLIC "-//W3C//DTD SVG 1.1//EN"
  "http://www.w3.org/Graphics/SVG/1.1/DTD/svg11.dtd">
<svg xmlns:xlink="http://www.w3.org/1999/xlink" width="398.919375pt" height="226.72275pt" viewBox="0 0 398.919375 226.72275" xmlns="http://www.w3.org/2000/svg" version="1.1">
 <metadata>
  <rdf:RDF xmlns:dc="http://purl.org/dc/elements/1.1/" xmlns:cc="http://creativecommons.org/ns#" xmlns:rdf="http://www.w3.org/1999/02/22-rdf-syntax-ns#">
   <cc:Work>
    <dc:type rdf:resource="http://purl.org/dc/dcmitype/StillImage"/>
    <dc:date>2022-11-25T17:07:01.244492</dc:date>
    <dc:format>image/svg+xml</dc:format>
    <dc:creator>
     <cc:Agent>
      <dc:title>Matplotlib v3.5.1, https://matplotlib.org/</dc:title>
     </cc:Agent>
    </dc:creator>
   </cc:Work>
  </rdf:RDF>
 </metadata>
 <defs>
  <style type="text/css">*{stroke-linejoin: round; stroke-linecap: butt}</style>
 </defs>
 <g id="figure_1">
  <g id="patch_1">
   <path d="M 0 226.72275 
L 398.919375 226.72275 
L 398.919375 0 
L 0 0 
z
" style="fill: #ffffff"/>
  </g>
  <g id="axes_1">
   <g id="patch_2">
    <path d="M 31.599375 190.224 
L 388.719375 190.224 
L 388.719375 7.2 
L 31.599375 7.2 
z
" style="fill: #ffffff"/>
   </g>
   <g id="patch_3">
    <path d="M 44.991375 87.3288 
L 48.897375 99.0468 
L 45.013695 99.0468 
L 45.013695 87.552 
L 44.969055 87.552 
L 44.969055 99.0468 
L 41.085375 99.0468 
z
" clip-path="url(#pfadf21d242)" style="fill: #f7903d"/>
   </g>
   <g id="patch_4">
    <path d="M 67.311375 110.0952 
L 63.405375 98.3772 
L 67.289055 98.3772 
L 67.289055 109.872 
L 67.333695 109.872 
L 67.333695 98.3772 
L 71.217375 98.3772 
z
" clip-path="url(#pfadf21d242)" style="fill: #f7903d"/>
   </g>
   <g id="patch_5">
    <path d="M 89.631375 87.3288 
L 93.537375 99.0468 
L 89.653695 99.0468 
L 89.653695 87.552 
L 89.609055 87.552 
L 89.609055 99.0468 
L 85.725375 99.0468 
z
" clip-path="url(#pfadf21d242)" style="fill: #f7903d"/>
   </g>
   <g id="patch_6">
    <path d="M 111.951375 110.0952 
L 108.045375 98.3772 
L 111.929055 98.3772 
L 111.929055 109.872 
L 111.973695 109.872 
L 111.973695 98.3772 
L 115.857375 98.3772 
z
" clip-path="url(#pfadf21d242)" style="fill: #f7903d"/>
   </g>
   <g id="patch_7">
    <path d="M 134.271375 87.3288 
L 138.177375 99.0468 
L 134.293695 99.0468 
L 134.293695 87.552 
L 134.249055 87.552 
L 134.249055 99.0468 
L 130.365375 99.0468 
z
" clip-path="url(#pfadf21d242)" style="fill: #f7903d"/>
   </g>
   <g id="patch_8">
    <path d="M 156.591375 110.0952 
L 152.685375 98.3772 
L 156.569055 98.3772 
L 156.569055 109.872 
L 156.613695 109.872 
L 156.613695 98.3772 
L 160.497375 98.3772 
z
" clip-path="url(#pfadf21d242)" style="fill: #f7903d"/>
   </g>
   <g id="patch_9">
    <path d="M 178.911375 87.3288 
L 182.817375 99.0468 
L 178.933695 99.0468 
L 178.933695 87.552 
L 178.889055 87.552 
L 178.889055 99.0468 
L 175.005375 99.0468 
z
" clip-path="url(#pfadf21d242)" style="fill: #f7903d"/>
   </g>
   <g id="patch_10">
    <path d="M 201.231375 110.0952 
L 197.325375 98.3772 
L 201.209055 98.3772 
L 201.209055 109.872 
L 201.253695 109.872 
L 201.253695 98.3772 
L 205.137375 98.3772 
z
" clip-path="url(#pfadf21d242)" style="fill: #f7903d"/>
   </g>
   <g id="patch_11">
    <path d="M 223.551375 87.3288 
L 227.457375 99.0468 
L 223.573695 99.0468 
L 223.573695 87.552 
L 223.529055 87.552 
L 223.529055 99.0468 
L 219.645375 99.0468 
z
" clip-path="url(#pfadf21d242)" style="fill: #f7903d"/>
   </g>
   <g id="patch_12">
    <path d="M 245.871375 110.0952 
L 241.965375 98.3772 
L 245.849055 98.3772 
L 245.849055 109.872 
L 245.893695 109.872 
L 245.893695 98.3772 
L 249.777375 98.3772 
z
" clip-path="url(#pfadf21d242)" style="fill: #f7903d"/>
   </g>
   <g id="patch_13">
    <path d="M 268.191375 87.3288 
L 272.097375 99.0468 
L 268.213695 99.0468 
L 268.213695 87.552 
L 268.169055 87.552 
L 268.169055 99.0468 
L 264.285375 99.0468 
z
" clip-path="url(#pfadf21d242)" style="fill: #f7903d"/>
   </g>
   <g id="patch_14">
    <path d="M 290.511375 110.0952 
L 286.605375 98.3772 
L 290.489055 98.3772 
L 290.489055 109.872 
L 290.533695 109.872 
L 290.533695 98.3772 
L 294.417375 98.3772 
z
" clip-path="url(#pfadf21d242)" style="fill: #f7903d"/>
   </g>
   <g id="patch_15">
    <path d="M 312.831375 87.3288 
L 316.737375 99.0468 
L 312.853695 99.0468 
L 312.853695 87.552 
L 312.809055 87.552 
L 312.809055 99.0468 
L 308.925375 99.0468 
z
" clip-path="url(#pfadf21d242)" style="fill: #f7903d"/>
   </g>
   <g id="patch_16">
    <path d="M 335.151375 110.0952 
L 331.245375 98.3772 
L 335.129055 98.3772 
L 335.129055 109.872 
L 335.173695 109.872 
L 335.173695 98.3772 
L 339.057375 98.3772 
z
" clip-path="url(#pfadf21d242)" style="fill: #f7903d"/>
   </g>
   <g id="patch_17">
    <path d="M 357.471375 87.3288 
L 361.377375 99.0468 
L 357.493695 99.0468 
L 357.493695 87.552 
L 357.449055 87.552 
L 357.449055 99.0468 
L 353.565375 99.0468 
z
" clip-path="url(#pfadf21d242)" style="fill: #f7903d"/>
   </g>
   <g id="matplotlib.axis_1">
    <g id="xtick_1">
     <g id="line2d_1">
      <defs>
       <path id="mc02840bcfa" d="M 0 0 
L 0 -3.5 
" style="stroke: #000000; stroke-width: 0.8"/>
      </defs>
      <g>
       <use xlink:href="#mc02840bcfa" x="31.599375" y="190.224" style="stroke: #000000; stroke-width: 0.8"/>
      </g>
     </g>
     <g id="text_1">
      <!-- 0 -->
      <g transform="translate(28.599375 202.0565)scale(0.12 -0.12)">
       <defs>
        <path id="TimesNewRomanPSMT-30" d="M 231 2094 
Q 231 2819 450 3342 
Q 669 3866 1031 4122 
Q 1313 4325 1613 4325 
Q 2100 4325 2488 3828 
Q 2972 3213 2972 2159 
Q 2972 1422 2759 906 
Q 2547 391 2217 158 
Q 1888 -75 1581 -75 
Q 975 -75 572 641 
Q 231 1244 231 2094 
z
M 844 2016 
Q 844 1141 1059 588 
Q 1238 122 1591 122 
Q 1759 122 1940 273 
Q 2122 425 2216 781 
Q 2359 1319 2359 2297 
Q 2359 3022 2209 3506 
Q 2097 3866 1919 4016 
Q 1791 4119 1609 4119 
Q 1397 4119 1231 3928 
Q 1006 3669 925 3112 
Q 844 2556 844 2016 
z
" transform="scale(0.015625)"/>
       </defs>
       <use xlink:href="#TimesNewRomanPSMT-30"/>
      </g>
     </g>
    </g>
    <g id="xtick_2">
     <g id="line2d_2">
      <g>
       <use xlink:href="#mc02840bcfa" x="76.239375" y="190.224" style="stroke: #000000; stroke-width: 0.8"/>
      </g>
     </g>
     <g id="text_2">
      <!-- 1 -->
      <g transform="translate(73.239375 202.0565)scale(0.12 -0.12)">
       <defs>
        <path id="TimesNewRomanPSMT-31" d="M 750 3822 
L 1781 4325 
L 1884 4325 
L 1884 747 
Q 1884 391 1914 303 
Q 1944 216 2037 169 
Q 2131 122 2419 116 
L 2419 0 
L 825 0 
L 825 116 
Q 1125 122 1212 167 
Q 1300 213 1334 289 
Q 1369 366 1369 747 
L 1369 3034 
Q 1369 3497 1338 3628 
Q 1316 3728 1258 3775 
Q 1200 3822 1119 3822 
Q 1003 3822 797 3725 
L 750 3822 
z
" transform="scale(0.015625)"/>
       </defs>
       <use xlink:href="#TimesNewRomanPSMT-31"/>
      </g>
     </g>
    </g>
    <g id="xtick_3">
     <g id="line2d_3">
      <g>
       <use xlink:href="#mc02840bcfa" x="120.879375" y="190.224" style="stroke: #000000; stroke-width: 0.8"/>
      </g>
     </g>
     <g id="text_3">
      <!-- 2 -->
      <g transform="translate(117.879375 202.0565)scale(0.12 -0.12)">
       <defs>
        <path id="TimesNewRomanPSMT-32" d="M 2934 816 
L 2638 0 
L 138 0 
L 138 116 
Q 1241 1122 1691 1759 
Q 2141 2397 2141 2925 
Q 2141 3328 1894 3587 
Q 1647 3847 1303 3847 
Q 991 3847 742 3664 
Q 494 3481 375 3128 
L 259 3128 
Q 338 3706 661 4015 
Q 984 4325 1469 4325 
Q 1984 4325 2329 3994 
Q 2675 3663 2675 3213 
Q 2675 2891 2525 2569 
Q 2294 2063 1775 1497 
Q 997 647 803 472 
L 1909 472 
Q 2247 472 2383 497 
Q 2519 522 2628 598 
Q 2738 675 2819 816 
L 2934 816 
z
" transform="scale(0.015625)"/>
       </defs>
       <use xlink:href="#TimesNewRomanPSMT-32"/>
      </g>
     </g>
    </g>
    <g id="xtick_4">
     <g id="line2d_4">
      <g>
       <use xlink:href="#mc02840bcfa" x="165.519375" y="190.224" style="stroke: #000000; stroke-width: 0.8"/>
      </g>
     </g>
     <g id="text_4">
      <!-- 3 -->
      <g transform="translate(162.519375 202.0565)scale(0.12 -0.12)">
       <defs>
        <path id="TimesNewRomanPSMT-33" d="M 325 3431 
Q 506 3859 782 4092 
Q 1059 4325 1472 4325 
Q 1981 4325 2253 3994 
Q 2459 3747 2459 3466 
Q 2459 3003 1878 2509 
Q 2269 2356 2469 2072 
Q 2669 1788 2669 1403 
Q 2669 853 2319 450 
Q 1863 -75 997 -75 
Q 569 -75 414 31 
Q 259 138 259 259 
Q 259 350 332 419 
Q 406 488 509 488 
Q 588 488 669 463 
Q 722 447 909 348 
Q 1097 250 1169 231 
Q 1284 197 1416 197 
Q 1734 197 1970 444 
Q 2206 691 2206 1028 
Q 2206 1275 2097 1509 
Q 2016 1684 1919 1775 
Q 1784 1900 1550 2001 
Q 1316 2103 1072 2103 
L 972 2103 
L 972 2197 
Q 1219 2228 1467 2375 
Q 1716 2522 1828 2728 
Q 1941 2934 1941 3181 
Q 1941 3503 1739 3701 
Q 1538 3900 1238 3900 
Q 753 3900 428 3381 
L 325 3431 
z
" transform="scale(0.015625)"/>
       </defs>
       <use xlink:href="#TimesNewRomanPSMT-33"/>
      </g>
     </g>
    </g>
    <g id="xtick_5">
     <g id="line2d_5">
      <g>
       <use xlink:href="#mc02840bcfa" x="210.159375" y="190.224" style="stroke: #000000; stroke-width: 0.8"/>
      </g>
     </g>
     <g id="text_5">
      <!-- 4 -->
      <g transform="translate(207.159375 202.0565)scale(0.12 -0.12)">
       <defs>
        <path id="TimesNewRomanPSMT-34" d="M 2978 1563 
L 2978 1119 
L 2409 1119 
L 2409 0 
L 1894 0 
L 1894 1119 
L 100 1119 
L 100 1519 
L 2066 4325 
L 2409 4325 
L 2409 1563 
L 2978 1563 
z
M 1894 1563 
L 1894 3666 
L 406 1563 
L 1894 1563 
z
" transform="scale(0.015625)"/>
       </defs>
       <use xlink:href="#TimesNewRomanPSMT-34"/>
      </g>
     </g>
    </g>
    <g id="xtick_6">
     <g id="line2d_6">
      <g>
       <use xlink:href="#mc02840bcfa" x="254.799375" y="190.224" style="stroke: #000000; stroke-width: 0.8"/>
      </g>
     </g>
     <g id="text_6">
      <!-- 5 -->
      <g transform="translate(251.799375 202.0565)scale(0.12 -0.12)">
       <defs>
        <path id="TimesNewRomanPSMT-35" d="M 2778 4238 
L 2534 3706 
L 1259 3706 
L 981 3138 
Q 1809 3016 2294 2522 
Q 2709 2097 2709 1522 
Q 2709 1188 2573 903 
Q 2438 619 2231 419 
Q 2025 219 1772 97 
Q 1413 -75 1034 -75 
Q 653 -75 479 54 
Q 306 184 306 341 
Q 306 428 378 495 
Q 450 563 559 563 
Q 641 563 702 538 
Q 763 513 909 409 
Q 1144 247 1384 247 
Q 1750 247 2026 523 
Q 2303 800 2303 1197 
Q 2303 1581 2056 1914 
Q 1809 2247 1375 2428 
Q 1034 2569 447 2591 
L 1259 4238 
L 2778 4238 
z
" transform="scale(0.015625)"/>
       </defs>
       <use xlink:href="#TimesNewRomanPSMT-35"/>
      </g>
     </g>
    </g>
    <g id="xtick_7">
     <g id="line2d_7">
      <g>
       <use xlink:href="#mc02840bcfa" x="299.439375" y="190.224" style="stroke: #000000; stroke-width: 0.8"/>
      </g>
     </g>
     <g id="text_7">
      <!-- 6 -->
      <g transform="translate(296.439375 202.0565)scale(0.12 -0.12)">
       <defs>
        <path id="TimesNewRomanPSMT-36" d="M 2869 4325 
L 2869 4209 
Q 2456 4169 2195 4045 
Q 1934 3922 1679 3669 
Q 1425 3416 1258 3105 
Q 1091 2794 978 2366 
Q 1428 2675 1881 2675 
Q 2316 2675 2634 2325 
Q 2953 1975 2953 1425 
Q 2953 894 2631 456 
Q 2244 -75 1606 -75 
Q 1172 -75 869 213 
Q 275 772 275 1663 
Q 275 2231 503 2743 
Q 731 3256 1154 3653 
Q 1578 4050 1965 4187 
Q 2353 4325 2688 4325 
L 2869 4325 
z
M 925 2138 
Q 869 1716 869 1456 
Q 869 1156 980 804 
Q 1091 453 1309 247 
Q 1469 100 1697 100 
Q 1969 100 2183 356 
Q 2397 613 2397 1088 
Q 2397 1622 2184 2012 
Q 1972 2403 1581 2403 
Q 1463 2403 1327 2353 
Q 1191 2303 925 2138 
z
" transform="scale(0.015625)"/>
       </defs>
       <use xlink:href="#TimesNewRomanPSMT-36"/>
      </g>
     </g>
    </g>
    <g id="xtick_8">
     <g id="line2d_8">
      <g>
       <use xlink:href="#mc02840bcfa" x="344.079375" y="190.224" style="stroke: #000000; stroke-width: 0.8"/>
      </g>
     </g>
     <g id="text_8">
      <!-- 7 -->
      <g transform="translate(341.079375 202.0565)scale(0.12 -0.12)">
       <defs>
        <path id="TimesNewRomanPSMT-37" d="M 644 4238 
L 2916 4238 
L 2916 4119 
L 1503 -88 
L 1153 -88 
L 2419 3728 
L 1253 3728 
Q 900 3728 750 3644 
Q 488 3500 328 3200 
L 238 3234 
L 644 4238 
z
" transform="scale(0.015625)"/>
       </defs>
       <use xlink:href="#TimesNewRomanPSMT-37"/>
      </g>
     </g>
    </g>
    <g id="xtick_9">
     <g id="line2d_9">
      <g>
       <use xlink:href="#mc02840bcfa" x="388.719375" y="190.224" style="stroke: #000000; stroke-width: 0.8"/>
      </g>
     </g>
     <g id="text_9">
      <!-- 8 -->
      <g transform="translate(385.719375 202.0565)scale(0.12 -0.12)">
       <defs>
        <path id="TimesNewRomanPSMT-38" d="M 1228 2134 
Q 725 2547 579 2797 
Q 434 3047 434 3316 
Q 434 3728 753 4026 
Q 1072 4325 1600 4325 
Q 2113 4325 2425 4047 
Q 2738 3769 2738 3413 
Q 2738 3175 2569 2928 
Q 2400 2681 1866 2347 
Q 2416 1922 2594 1678 
Q 2831 1359 2831 1006 
Q 2831 559 2490 242 
Q 2150 -75 1597 -75 
Q 994 -75 656 303 
Q 388 606 388 966 
Q 388 1247 577 1523 
Q 766 1800 1228 2134 
z
M 1719 2469 
Q 2094 2806 2194 3001 
Q 2294 3197 2294 3444 
Q 2294 3772 2109 3958 
Q 1925 4144 1606 4144 
Q 1288 4144 1088 3959 
Q 888 3775 888 3528 
Q 888 3366 970 3203 
Q 1053 3041 1206 2894 
L 1719 2469 
z
M 1375 2016 
Q 1116 1797 991 1539 
Q 866 1281 866 981 
Q 866 578 1086 336 
Q 1306 94 1647 94 
Q 1984 94 2187 284 
Q 2391 475 2391 747 
Q 2391 972 2272 1150 
Q 2050 1481 1375 2016 
z
" transform="scale(0.015625)"/>
       </defs>
       <use xlink:href="#TimesNewRomanPSMT-38"/>
      </g>
     </g>
    </g>
    <g id="text_10">
     <!-- X (m) -->
     <g transform="translate(195.66375 216.955875)scale(0.12 -0.12)">
      <defs>
       <path id="TimesNewRomanPSMT-58" d="M 2613 2347 
L 3522 991 
Q 3900 428 4083 279 
Q 4266 131 4547 116 
L 4547 0 
L 2728 0 
L 2728 116 
Q 2909 119 2997 153 
Q 3063 181 3105 239 
Q 3147 297 3147 356 
Q 3147 428 3119 500 
Q 3097 553 2947 775 
L 2228 1863 
L 1341 725 
Q 1200 544 1172 483 
Q 1144 422 1144 356 
Q 1144 256 1228 190 
Q 1313 125 1550 116 
L 1550 0 
L 47 0 
L 47 116 
Q 206 131 322 181 
Q 516 263 691 400 
Q 866 538 1091 822 
L 2091 2084 
L 1256 3306 
Q 916 3803 678 3958 
Q 441 4113 131 4122 
L 131 4238 
L 2091 4238 
L 2091 4122 
Q 1841 4113 1748 4041 
Q 1656 3969 1656 3881 
Q 1656 3766 1806 3544 
L 2456 2572 
L 3209 3525 
Q 3341 3694 3370 3756 
Q 3400 3819 3400 3884 
Q 3400 3950 3363 4000 
Q 3316 4066 3244 4092 
Q 3172 4119 2947 4122 
L 2947 4238 
L 4450 4238 
L 4450 4122 
Q 4272 4113 4159 4066 
Q 3991 3994 3850 3872 
Q 3709 3750 3453 3422 
L 2613 2347 
z
" transform="scale(0.015625)"/>
       <path id="TimesNewRomanPSMT-20" transform="scale(0.015625)"/>
       <path id="TimesNewRomanPSMT-28" d="M 1988 -1253 
L 1988 -1369 
Q 1516 -1131 1200 -813 
Q 750 -359 506 256 
Q 263 872 263 1534 
Q 263 2503 741 3301 
Q 1219 4100 1988 4444 
L 1988 4313 
Q 1603 4100 1356 3731 
Q 1109 3363 987 2797 
Q 866 2231 866 1616 
Q 866 947 969 400 
Q 1050 -31 1165 -292 
Q 1281 -553 1476 -793 
Q 1672 -1034 1988 -1253 
z
" transform="scale(0.015625)"/>
       <path id="TimesNewRomanPSMT-6d" d="M 1050 2338 
Q 1363 2650 1419 2697 
Q 1559 2816 1721 2881 
Q 1884 2947 2044 2947 
Q 2313 2947 2506 2790 
Q 2700 2634 2766 2338 
Q 3088 2713 3309 2830 
Q 3531 2947 3766 2947 
Q 3994 2947 4170 2830 
Q 4347 2713 4450 2447 
Q 4519 2266 4519 1878 
L 4519 647 
Q 4519 378 4559 278 
Q 4591 209 4675 161 
Q 4759 113 4950 113 
L 4950 0 
L 3538 0 
L 3538 113 
L 3597 113 
Q 3781 113 3884 184 
Q 3956 234 3988 344 
Q 4000 397 4000 647 
L 4000 1878 
Q 4000 2228 3916 2372 
Q 3794 2572 3525 2572 
Q 3359 2572 3192 2489 
Q 3025 2406 2788 2181 
L 2781 2147 
L 2788 2013 
L 2788 647 
Q 2788 353 2820 281 
Q 2853 209 2943 161 
Q 3034 113 3253 113 
L 3253 0 
L 1806 0 
L 1806 113 
Q 2044 113 2133 169 
Q 2222 225 2256 338 
Q 2272 391 2272 647 
L 2272 1878 
Q 2272 2228 2169 2381 
Q 2031 2581 1784 2581 
Q 1616 2581 1450 2491 
Q 1191 2353 1050 2181 
L 1050 647 
Q 1050 366 1089 281 
Q 1128 197 1204 155 
Q 1281 113 1516 113 
L 1516 0 
L 100 0 
L 100 113 
Q 297 113 375 155 
Q 453 197 493 289 
Q 534 381 534 647 
L 534 1741 
Q 534 2213 506 2350 
Q 484 2453 437 2492 
Q 391 2531 309 2531 
Q 222 2531 100 2484 
L 53 2597 
L 916 2947 
L 1050 2947 
L 1050 2338 
z
" transform="scale(0.015625)"/>
       <path id="TimesNewRomanPSMT-29" d="M 144 4313 
L 144 4444 
Q 619 4209 934 3891 
Q 1381 3434 1625 2820 
Q 1869 2206 1869 1541 
Q 1869 572 1392 -226 
Q 916 -1025 144 -1369 
L 144 -1253 
Q 528 -1038 776 -670 
Q 1025 -303 1145 264 
Q 1266 831 1266 1447 
Q 1266 2113 1163 2663 
Q 1084 3094 967 3353 
Q 850 3613 656 3853 
Q 463 4094 144 4313 
z
" transform="scale(0.015625)"/>
      </defs>
      <use xlink:href="#TimesNewRomanPSMT-58"/>
      <use xlink:href="#TimesNewRomanPSMT-20" x="72.216797"/>
      <use xlink:href="#TimesNewRomanPSMT-28" x="97.216797"/>
      <use xlink:href="#TimesNewRomanPSMT-6d" x="130.517578"/>
      <use xlink:href="#TimesNewRomanPSMT-29" x="208.300781"/>
     </g>
    </g>
   </g>
   <g id="matplotlib.axis_2">
    <g id="ytick_1">
     <g id="line2d_10">
      <defs>
       <path id="m5908996bef" d="M 0 0 
L 3.5 0 
" style="stroke: #000000; stroke-width: 0.8"/>
      </defs>
      <g>
       <use xlink:href="#m5908996bef" x="31.599375" y="190.224" style="stroke: #000000; stroke-width: 0.8"/>
      </g>
     </g>
     <g id="text_11">
      <!-- 0 -->
      <g transform="translate(22.099375 194.39025)scale(0.12 -0.12)">
       <use xlink:href="#TimesNewRomanPSMT-30"/>
      </g>
     </g>
    </g>
    <g id="ytick_2">
     <g id="line2d_11">
      <g>
       <use xlink:href="#m5908996bef" x="31.599375" y="145.584" style="stroke: #000000; stroke-width: 0.8"/>
      </g>
     </g>
     <g id="text_12">
      <!-- 1 -->
      <g transform="translate(22.099375 149.75025)scale(0.12 -0.12)">
       <use xlink:href="#TimesNewRomanPSMT-31"/>
      </g>
     </g>
    </g>
    <g id="ytick_3">
     <g id="line2d_12">
      <g>
       <use xlink:href="#m5908996bef" x="31.599375" y="100.944" style="stroke: #000000; stroke-width: 0.8"/>
      </g>
     </g>
     <g id="text_13">
      <!-- 2 -->
      <g transform="translate(22.099375 105.11025)scale(0.12 -0.12)">
       <use xlink:href="#TimesNewRomanPSMT-32"/>
      </g>
     </g>
    </g>
    <g id="ytick_4">
     <g id="line2d_13">
      <g>
       <use xlink:href="#m5908996bef" x="31.599375" y="56.304" style="stroke: #000000; stroke-width: 0.8"/>
      </g>
     </g>
     <g id="text_14">
      <!-- 3 -->
      <g transform="translate(22.099375 60.47025)scale(0.12 -0.12)">
       <use xlink:href="#TimesNewRomanPSMT-33"/>
      </g>
     </g>
    </g>
    <g id="ytick_5">
     <g id="line2d_14">
      <g>
       <use xlink:href="#m5908996bef" x="31.599375" y="11.664" style="stroke: #000000; stroke-width: 0.8"/>
      </g>
     </g>
     <g id="text_15">
      <!-- 4 -->
      <g transform="translate(22.099375 15.83025)scale(0.12 -0.12)">
       <use xlink:href="#TimesNewRomanPSMT-34"/>
      </g>
     </g>
    </g>
    <g id="text_16">
     <!-- Y (m) -->
     <g transform="translate(15.5325 112.982625)rotate(-90)scale(0.12 -0.12)">
      <defs>
       <path id="TimesNewRomanPSMT-59" d="M 3050 4238 
L 4528 4238 
L 4528 4122 
L 4447 4122 
Q 4366 4122 4209 4050 
Q 4053 3978 3925 3843 
Q 3797 3709 3609 3406 
L 2588 1797 
L 2588 734 
Q 2588 344 2675 247 
Q 2794 116 3050 116 
L 3188 116 
L 3188 0 
L 1388 0 
L 1388 116 
L 1538 116 
Q 1806 116 1919 278 
Q 1988 378 1988 734 
L 1988 1738 
L 825 3513 
Q 619 3825 545 3903 
Q 472 3981 241 4091 
Q 178 4122 59 4122 
L 59 4238 
L 1872 4238 
L 1872 4122 
L 1778 4122 
Q 1631 4122 1507 4053 
Q 1384 3984 1384 3847 
Q 1384 3734 1575 3441 
L 2459 2075 
L 3291 3381 
Q 3478 3675 3478 3819 
Q 3478 3906 3433 3975 
Q 3388 4044 3303 4083 
Q 3219 4122 3050 4122 
L 3050 4238 
z
" transform="scale(0.015625)"/>
      </defs>
      <use xlink:href="#TimesNewRomanPSMT-59"/>
      <use xlink:href="#TimesNewRomanPSMT-20" x="68.466797"/>
      <use xlink:href="#TimesNewRomanPSMT-28" x="93.466797"/>
      <use xlink:href="#TimesNewRomanPSMT-6d" x="126.767578"/>
      <use xlink:href="#TimesNewRomanPSMT-29" x="204.550781"/>
     </g>
    </g>
   </g>
   <g id="line2d_15">
    <path d="M 44.991375 176.832 
L 44.991375 154.512 
L 44.991375 132.192 
L 44.991375 109.872 
L 44.991375 87.552 
L 44.991375 65.232 
L 44.991375 42.912 
L 44.991375 20.592 
L 67.311375 20.592 
L 67.311375 42.912 
L 67.311375 65.232 
L 67.311375 87.552 
L 67.311375 109.872 
L 67.311375 132.192 
L 67.311375 154.512 
L 67.311375 176.832 
L 89.631375 176.832 
L 89.631375 154.512 
L 89.631375 132.192 
L 89.631375 109.872 
L 89.631375 87.552 
L 89.631375 65.232 
L 89.631375 42.912 
L 89.631375 20.592 
L 111.951375 20.592 
L 111.951375 42.912 
L 111.951375 65.232 
L 111.951375 87.552 
L 111.951375 109.872 
L 111.951375 132.192 
L 111.951375 154.512 
L 111.951375 176.832 
L 134.271375 176.832 
L 134.271375 154.512 
L 134.271375 132.192 
L 134.271375 109.872 
L 134.271375 87.552 
L 134.271375 65.232 
L 134.271375 42.912 
L 134.271375 20.592 
L 156.591375 20.592 
L 156.591375 42.912 
L 156.591375 65.232 
L 156.591375 87.552 
L 156.591375 109.872 
L 156.591375 132.192 
L 156.591375 154.512 
L 156.591375 176.832 
L 178.911375 176.832 
L 178.911375 154.512 
L 178.911375 132.192 
L 178.911375 109.872 
L 178.911375 87.552 
L 178.911375 65.232 
L 178.911375 42.912 
L 178.911375 20.592 
L 201.231375 20.592 
L 201.231375 42.912 
L 201.231375 65.232 
L 201.231375 87.552 
L 201.231375 109.872 
L 201.231375 132.192 
L 201.231375 154.512 
L 201.231375 176.832 
L 223.551375 176.832 
L 223.551375 154.512 
L 223.551375 132.192 
L 223.551375 109.872 
L 223.551375 87.552 
L 223.551375 65.232 
L 223.551375 42.912 
L 223.551375 20.592 
L 245.871375 20.592 
L 245.871375 42.912 
L 245.871375 65.232 
L 245.871375 87.552 
L 245.871375 109.872 
L 245.871375 132.192 
L 245.871375 154.512 
L 245.871375 176.832 
L 268.191375 176.832 
L 268.191375 154.512 
L 268.191375 132.192 
L 268.191375 109.872 
L 268.191375 87.552 
L 268.191375 65.232 
L 268.191375 42.912 
L 268.191375 20.592 
L 290.511375 20.592 
L 290.511375 42.912 
L 290.511375 65.232 
L 290.511375 87.552 
L 290.511375 109.872 
L 290.511375 132.192 
L 290.511375 154.512 
L 290.511375 176.832 
L 312.831375 176.832 
L 312.831375 154.512 
L 312.831375 132.192 
L 312.831375 109.872 
L 312.831375 87.552 
L 312.831375 65.232 
L 312.831375 42.912 
L 312.831375 20.592 
L 335.151375 20.592 
L 335.151375 42.912 
L 335.151375 65.232 
L 335.151375 87.552 
L 335.151375 109.872 
L 335.151375 132.192 
L 335.151375 154.512 
L 335.151375 176.832 
L 357.471375 176.832 
L 357.471375 154.512 
L 357.471375 132.192 
L 357.471375 109.872 
L 357.471375 87.552 
L 357.471375 65.232 
" clip-path="url(#pfadf21d242)" style="fill: none; stroke-dasharray: 6.475,2.8; stroke-dashoffset: 0; stroke: #f7903d; stroke-opacity: 0.9; stroke-width: 1.75"/>
    <defs>
     <path id="m8e136d647a" d="M 0 3 
C 0.795609 3 1.55874 2.683901 2.12132 2.12132 
C 2.683901 1.55874 3 0.795609 3 0 
C 3 -0.795609 2.683901 -1.55874 2.12132 -2.12132 
C 1.55874 -2.683901 0.795609 -3 0 -3 
C -0.795609 -3 -1.55874 -2.683901 -2.12132 -2.12132 
C -2.683901 -1.55874 -3 -0.795609 -3 0 
C -3 0.795609 -2.683901 1.55874 -2.12132 2.12132 
C -1.55874 2.683901 -0.795609 3 0 3 
z
" style="stroke: #f7903d; stroke-opacity: 0.9"/>
    </defs>
    <g clip-path="url(#pfadf21d242)">
     <use xlink:href="#m8e136d647a" x="44.991375" y="176.832" style="fill: #f7903d; fill-opacity: 0.9; stroke: #f7903d; stroke-opacity: 0.9"/>
     <use xlink:href="#m8e136d647a" x="357.471375" y="65.232" style="fill: #f7903d; fill-opacity: 0.9; stroke: #f7903d; stroke-opacity: 0.9"/>
    </g>
   </g>
   <g id="line2d_16">
    <path d="M 337.383375 54.072 
L 337.526252 51.550573 
L 337.892373 49.332529 
L 338.472809 47.183933 
L 339.26756 45.096486 
L 340.267696 43.097631 
L 341.455357 41.219286 
L 342.830544 39.460703 
L 344.375397 37.847466 
L 346.072057 36.39802 
L 347.902663 35.126668 
L 349.849356 34.045 
L 351.894277 33.162663 
L 354.019566 32.487823 
L 356.198434 32.028911 
L 358.413021 31.78933 
L 360.636538 31.771516 
L 362.851125 31.975075 
L 365.038922 32.399106 
L 367.173141 33.03905 
L 369.235922 33.890004 
L 371.200474 34.940897 
L 373.04894 36.181268 
L 374.763459 37.598498 
L 376.326172 39.176865 
L 377.728148 40.908036 
L 378.951529 42.771957 
L 379.978454 44.739071 
L 380.808924 46.809893 
L 381.425079 48.938779 
L 381.82692 51.117145 
L 382.005515 53.179289 
L 382.023375 54.072 
L 382.023375 54.072 
" clip-path="url(#pfadf21d242)" style="fill: none; stroke-dasharray: 3.7,1.6; stroke-dashoffset: 0; stroke: #0000ff"/>
   </g>
   <g id="line2d_17">
    <path d="M 337.383375 54.072 
L 337.526252 56.593427 
L 337.892373 58.811471 
L 338.472809 60.960067 
L 339.26756 63.047514 
L 340.267696 65.046369 
L 341.455357 66.924714 
L 342.830544 68.683297 
L 344.375397 70.296534 
L 346.072057 71.74598 
L 347.902663 73.017332 
L 349.849356 74.099 
L 351.894277 74.981337 
L 354.019566 75.656177 
L 356.198434 76.115089 
L 358.413021 76.35467 
L 360.636538 76.372484 
L 362.851125 76.168925 
L 365.038922 75.744894 
L 367.173141 75.10495 
L 369.235922 74.253996 
L 371.200474 73.203103 
L 373.04894 71.962732 
L 374.763459 70.545502 
L 376.326172 68.967135 
L 377.728148 67.235964 
L 378.951529 65.372043 
L 379.978454 63.404929 
L 380.808924 61.334107 
L 381.425079 59.205221 
L 381.82692 57.026855 
L 382.005515 54.964711 
L 382.023375 54.072 
L 382.023375 54.072 
" clip-path="url(#pfadf21d242)" style="fill: none; stroke-dasharray: 3.7,1.6; stroke-dashoffset: 0; stroke: #0000ff"/>
   </g>
   <g id="line2d_18">
    <path d="M 359.703375 54.072 
" clip-path="url(#pfadf21d242)" style="fill: none; stroke: #ff0000; stroke-width: 1.5; stroke-linecap: square"/>
    <defs>
     <path id="m56e9e64432" d="M 0 2.5 
C 0.663008 2.5 1.29895 2.236584 1.767767 1.767767 
C 2.236584 1.29895 2.5 0.663008 2.5 0 
C 2.5 -0.663008 2.236584 -1.29895 1.767767 -1.767767 
C 1.29895 -2.236584 0.663008 -2.5 0 -2.5 
C -0.663008 -2.5 -1.29895 -2.236584 -1.767767 -1.767767 
C -2.236584 -1.29895 -2.5 -0.663008 -2.5 0 
C -2.5 0.663008 -2.236584 1.29895 -1.767767 1.767767 
C -1.29895 2.236584 -0.663008 2.5 0 2.5 
z
" style="stroke: #ff0000"/>
    </defs>
    <g clip-path="url(#pfadf21d242)">
     <use xlink:href="#m56e9e64432" x="359.703375" y="54.072" style="fill: #ff0000; stroke: #ff0000"/>
    </g>
   </g>
   <g id="patch_18">
    <path d="M 31.599375 190.224 
L 31.599375 7.2 
" style="fill: none; stroke: #000000; stroke-width: 0.8; stroke-linejoin: miter; stroke-linecap: square"/>
   </g>
   <g id="patch_19">
    <path d="M 388.719375 190.224 
L 388.719375 7.2 
" style="fill: none; stroke: #000000; stroke-width: 0.8; stroke-linejoin: miter; stroke-linecap: square"/>
   </g>
   <g id="patch_20">
    <path d="M 31.599375 190.224 
L 388.719375 190.224 
" style="fill: none; stroke: #000000; stroke-width: 0.8; stroke-linejoin: miter; stroke-linecap: square"/>
   </g>
   <g id="patch_21">
    <path d="M 31.599375 7.2 
L 388.719375 7.2 
" style="fill: none; stroke: #000000; stroke-width: 0.8; stroke-linejoin: miter; stroke-linecap: square"/>
   </g>
  </g>
 </g>
 <defs>
  <clipPath id="pfadf21d242">
   <rect x="31.599375" y="7.2" width="357.12" height="183.024"/>
  </clipPath>
 </defs>
</svg>
