<?xml version="1.0" encoding="utf-8" standalone="no"?>
<!DOCTYPE svg PUBLIC "-//W3C//DTD SVG 1.1//EN"
  "http://www.w3.org/Graphics/SVG/1.1/DTD/svg11.dtd">
<svg xmlns:xlink="http://www.w3.org/1999/xlink" width="457.478125pt" height="336.555075pt" viewBox="0 0 457.478125 336.555075" xmlns="http://www.w3.org/2000/svg" version="1.1">
 <metadata>
  <rdf:RDF xmlns:dc="http://purl.org/dc/elements/1.1/" xmlns:cc="http://creativecommons.org/ns#" xmlns:rdf="http://www.w3.org/1999/02/22-rdf-syntax-ns#">
   <cc:Work>
    <dc:type rdf:resource="http://purl.org/dc/dcmitype/StillImage"/>
    <dc:date>2023-03-29T12:16:47.013158</dc:date>
    <dc:format>image/svg+xml</dc:format>
    <dc:creator>
     <cc:Agent>
      <dc:title>Matplotlib v3.5.1, https://matplotlib.org/</dc:title>
     </cc:Agent>
    </dc:creator>
   </cc:Work>
  </rdf:RDF>
 </metadata>
 <defs>
  <style type="text/css">*{stroke-linejoin: round; stroke-linecap: butt}</style>
 </defs>
 <g id="figure_1">
  <g id="patch_1">
   <path d="M 0 336.555075 
L 457.478125 336.555075 
L 457.478125 0 
L 0 0 
z
" style="fill: #ffffff"/>
  </g>
  <g id="axes_1">
   <g id="patch_2">
    <path d="M 48.442188 292.9232 
L 405.562188 292.9232 
L 405.562188 26.8112 
L 48.442188 26.8112 
z
" style="fill: #ffffff"/>
   </g>
   <g id="matplotlib.axis_1">
    <g id="xtick_1">
     <g id="line2d_1">
      <defs>
       <path id="m234b64e333" d="M 0 0 
L 0 3.5 
" style="stroke: #000000; stroke-width: 0.8"/>
      </defs>
      <g>
       <use xlink:href="#m234b64e333" x="48.442188" y="292.9232" style="stroke: #000000; stroke-width: 0.8"/>
      </g>
     </g>
     <g id="text_1">
      <!-- 0 -->
      <g transform="translate(44.942188 309.64445)scale(0.14 -0.14)">
       <defs>
        <path id="TimesNewRomanPSMT-30" d="M 231 2094 
Q 231 2819 450 3342 
Q 669 3866 1031 4122 
Q 1313 4325 1613 4325 
Q 2100 4325 2488 3828 
Q 2972 3213 2972 2159 
Q 2972 1422 2759 906 
Q 2547 391 2217 158 
Q 1888 -75 1581 -75 
Q 975 -75 572 641 
Q 231 1244 231 2094 
z
M 844 2016 
Q 844 1141 1059 588 
Q 1238 122 1591 122 
Q 1759 122 1940 273 
Q 2122 425 2216 781 
Q 2359 1319 2359 2297 
Q 2359 3022 2209 3506 
Q 2097 3866 1919 4016 
Q 1791 4119 1609 4119 
Q 1397 4119 1231 3928 
Q 1006 3669 925 3112 
Q 844 2556 844 2016 
z
" transform="scale(0.015625)"/>
       </defs>
       <use xlink:href="#TimesNewRomanPSMT-30"/>
      </g>
     </g>
    </g>
    <g id="xtick_2">
     <g id="line2d_2">
      <g>
       <use xlink:href="#m234b64e333" x="107.962188" y="292.9232" style="stroke: #000000; stroke-width: 0.8"/>
      </g>
     </g>
     <g id="text_2">
      <!-- 50 -->
      <g transform="translate(100.962188 309.64445)scale(0.14 -0.14)">
       <defs>
        <path id="TimesNewRomanPSMT-35" d="M 2778 4238 
L 2534 3706 
L 1259 3706 
L 981 3138 
Q 1809 3016 2294 2522 
Q 2709 2097 2709 1522 
Q 2709 1188 2573 903 
Q 2438 619 2231 419 
Q 2025 219 1772 97 
Q 1413 -75 1034 -75 
Q 653 -75 479 54 
Q 306 184 306 341 
Q 306 428 378 495 
Q 450 563 559 563 
Q 641 563 702 538 
Q 763 513 909 409 
Q 1144 247 1384 247 
Q 1750 247 2026 523 
Q 2303 800 2303 1197 
Q 2303 1581 2056 1914 
Q 1809 2247 1375 2428 
Q 1034 2569 447 2591 
L 1259 4238 
L 2778 4238 
z
" transform="scale(0.015625)"/>
       </defs>
       <use xlink:href="#TimesNewRomanPSMT-35"/>
       <use xlink:href="#TimesNewRomanPSMT-30" x="50"/>
      </g>
     </g>
    </g>
    <g id="xtick_3">
     <g id="line2d_3">
      <g>
       <use xlink:href="#m234b64e333" x="167.482188" y="292.9232" style="stroke: #000000; stroke-width: 0.8"/>
      </g>
     </g>
     <g id="text_3">
      <!-- 100 -->
      <g transform="translate(156.982188 309.64445)scale(0.14 -0.14)">
       <defs>
        <path id="TimesNewRomanPSMT-31" d="M 750 3822 
L 1781 4325 
L 1884 4325 
L 1884 747 
Q 1884 391 1914 303 
Q 1944 216 2037 169 
Q 2131 122 2419 116 
L 2419 0 
L 825 0 
L 825 116 
Q 1125 122 1212 167 
Q 1300 213 1334 289 
Q 1369 366 1369 747 
L 1369 3034 
Q 1369 3497 1338 3628 
Q 1316 3728 1258 3775 
Q 1200 3822 1119 3822 
Q 1003 3822 797 3725 
L 750 3822 
z
" transform="scale(0.015625)"/>
       </defs>
       <use xlink:href="#TimesNewRomanPSMT-31"/>
       <use xlink:href="#TimesNewRomanPSMT-30" x="50"/>
       <use xlink:href="#TimesNewRomanPSMT-30" x="100"/>
      </g>
     </g>
    </g>
    <g id="xtick_4">
     <g id="line2d_4">
      <g>
       <use xlink:href="#m234b64e333" x="227.002188" y="292.9232" style="stroke: #000000; stroke-width: 0.8"/>
      </g>
     </g>
     <g id="text_4">
      <!-- 150 -->
      <g transform="translate(216.502188 309.64445)scale(0.14 -0.14)">
       <use xlink:href="#TimesNewRomanPSMT-31"/>
       <use xlink:href="#TimesNewRomanPSMT-35" x="50"/>
       <use xlink:href="#TimesNewRomanPSMT-30" x="100"/>
      </g>
     </g>
    </g>
    <g id="xtick_5">
     <g id="line2d_5">
      <g>
       <use xlink:href="#m234b64e333" x="286.522188" y="292.9232" style="stroke: #000000; stroke-width: 0.8"/>
      </g>
     </g>
     <g id="text_5">
      <!-- 200 -->
      <g transform="translate(276.022188 309.64445)scale(0.14 -0.14)">
       <defs>
        <path id="TimesNewRomanPSMT-32" d="M 2934 816 
L 2638 0 
L 138 0 
L 138 116 
Q 1241 1122 1691 1759 
Q 2141 2397 2141 2925 
Q 2141 3328 1894 3587 
Q 1647 3847 1303 3847 
Q 991 3847 742 3664 
Q 494 3481 375 3128 
L 259 3128 
Q 338 3706 661 4015 
Q 984 4325 1469 4325 
Q 1984 4325 2329 3994 
Q 2675 3663 2675 3213 
Q 2675 2891 2525 2569 
Q 2294 2063 1775 1497 
Q 997 647 803 472 
L 1909 472 
Q 2247 472 2383 497 
Q 2519 522 2628 598 
Q 2738 675 2819 816 
L 2934 816 
z
" transform="scale(0.015625)"/>
       </defs>
       <use xlink:href="#TimesNewRomanPSMT-32"/>
       <use xlink:href="#TimesNewRomanPSMT-30" x="50"/>
       <use xlink:href="#TimesNewRomanPSMT-30" x="100"/>
      </g>
     </g>
    </g>
    <g id="xtick_6">
     <g id="line2d_6">
      <g>
       <use xlink:href="#m234b64e333" x="346.042188" y="292.9232" style="stroke: #000000; stroke-width: 0.8"/>
      </g>
     </g>
     <g id="text_6">
      <!-- 250 -->
      <g transform="translate(335.542188 309.64445)scale(0.14 -0.14)">
       <use xlink:href="#TimesNewRomanPSMT-32"/>
       <use xlink:href="#TimesNewRomanPSMT-35" x="50"/>
       <use xlink:href="#TimesNewRomanPSMT-30" x="100"/>
      </g>
     </g>
    </g>
    <g id="xtick_7">
     <g id="line2d_7">
      <g>
       <use xlink:href="#m234b64e333" x="405.562188" y="292.9232" style="stroke: #000000; stroke-width: 0.8"/>
      </g>
     </g>
     <g id="text_7">
      <!-- 300 -->
      <g transform="translate(395.062188 309.64445)scale(0.14 -0.14)">
       <defs>
        <path id="TimesNewRomanPSMT-33" d="M 325 3431 
Q 506 3859 782 4092 
Q 1059 4325 1472 4325 
Q 1981 4325 2253 3994 
Q 2459 3747 2459 3466 
Q 2459 3003 1878 2509 
Q 2269 2356 2469 2072 
Q 2669 1788 2669 1403 
Q 2669 853 2319 450 
Q 1863 -75 997 -75 
Q 569 -75 414 31 
Q 259 138 259 259 
Q 259 350 332 419 
Q 406 488 509 488 
Q 588 488 669 463 
Q 722 447 909 348 
Q 1097 250 1169 231 
Q 1284 197 1416 197 
Q 1734 197 1970 444 
Q 2206 691 2206 1028 
Q 2206 1275 2097 1509 
Q 2016 1684 1919 1775 
Q 1784 1900 1550 2001 
Q 1316 2103 1072 2103 
L 972 2103 
L 972 2197 
Q 1219 2228 1467 2375 
Q 1716 2522 1828 2728 
Q 1941 2934 1941 3181 
Q 1941 3503 1739 3701 
Q 1538 3900 1238 3900 
Q 753 3900 428 3381 
L 325 3431 
z
" transform="scale(0.015625)"/>
       </defs>
       <use xlink:href="#TimesNewRomanPSMT-33"/>
       <use xlink:href="#TimesNewRomanPSMT-30" x="50"/>
       <use xlink:href="#TimesNewRomanPSMT-30" x="100"/>
      </g>
     </g>
    </g>
    <g id="text_8">
     <!-- Time (s) -->
     <g transform="translate(203.338906 326.360388)scale(0.14 -0.14)">
      <defs>
       <path id="TimesNewRomanPSMT-54" d="M 3703 4238 
L 3750 3244 
L 3631 3244 
Q 3597 3506 3538 3619 
Q 3441 3800 3280 3886 
Q 3119 3972 2856 3972 
L 2259 3972 
L 2259 734 
Q 2259 344 2344 247 
Q 2463 116 2709 116 
L 2856 116 
L 2856 0 
L 1059 0 
L 1059 116 
L 1209 116 
Q 1478 116 1591 278 
Q 1659 378 1659 734 
L 1659 3972 
L 1150 3972 
Q 853 3972 728 3928 
Q 566 3869 450 3700 
Q 334 3531 313 3244 
L 194 3244 
L 244 4238 
L 3703 4238 
z
" transform="scale(0.015625)"/>
       <path id="TimesNewRomanPSMT-69" d="M 928 4444 
Q 1059 4444 1151 4351 
Q 1244 4259 1244 4128 
Q 1244 3997 1151 3903 
Q 1059 3809 928 3809 
Q 797 3809 703 3903 
Q 609 3997 609 4128 
Q 609 4259 701 4351 
Q 794 4444 928 4444 
z
M 1188 2947 
L 1188 647 
Q 1188 378 1227 289 
Q 1266 200 1342 156 
Q 1419 113 1622 113 
L 1622 0 
L 231 0 
L 231 113 
Q 441 113 512 153 
Q 584 194 626 287 
Q 669 381 669 647 
L 669 1750 
Q 669 2216 641 2353 
Q 619 2453 572 2492 
Q 525 2531 444 2531 
Q 356 2531 231 2484 
L 188 2597 
L 1050 2947 
L 1188 2947 
z
" transform="scale(0.015625)"/>
       <path id="TimesNewRomanPSMT-6d" d="M 1050 2338 
Q 1363 2650 1419 2697 
Q 1559 2816 1721 2881 
Q 1884 2947 2044 2947 
Q 2313 2947 2506 2790 
Q 2700 2634 2766 2338 
Q 3088 2713 3309 2830 
Q 3531 2947 3766 2947 
Q 3994 2947 4170 2830 
Q 4347 2713 4450 2447 
Q 4519 2266 4519 1878 
L 4519 647 
Q 4519 378 4559 278 
Q 4591 209 4675 161 
Q 4759 113 4950 113 
L 4950 0 
L 3538 0 
L 3538 113 
L 3597 113 
Q 3781 113 3884 184 
Q 3956 234 3988 344 
Q 4000 397 4000 647 
L 4000 1878 
Q 4000 2228 3916 2372 
Q 3794 2572 3525 2572 
Q 3359 2572 3192 2489 
Q 3025 2406 2788 2181 
L 2781 2147 
L 2788 2013 
L 2788 647 
Q 2788 353 2820 281 
Q 2853 209 2943 161 
Q 3034 113 3253 113 
L 3253 0 
L 1806 0 
L 1806 113 
Q 2044 113 2133 169 
Q 2222 225 2256 338 
Q 2272 391 2272 647 
L 2272 1878 
Q 2272 2228 2169 2381 
Q 2031 2581 1784 2581 
Q 1616 2581 1450 2491 
Q 1191 2353 1050 2181 
L 1050 647 
Q 1050 366 1089 281 
Q 1128 197 1204 155 
Q 1281 113 1516 113 
L 1516 0 
L 100 0 
L 100 113 
Q 297 113 375 155 
Q 453 197 493 289 
Q 534 381 534 647 
L 534 1741 
Q 534 2213 506 2350 
Q 484 2453 437 2492 
Q 391 2531 309 2531 
Q 222 2531 100 2484 
L 53 2597 
L 916 2947 
L 1050 2947 
L 1050 2338 
z
" transform="scale(0.015625)"/>
       <path id="TimesNewRomanPSMT-65" d="M 681 1784 
Q 678 1147 991 784 
Q 1303 422 1725 422 
Q 2006 422 2214 576 
Q 2422 731 2563 1106 
L 2659 1044 
Q 2594 616 2278 264 
Q 1963 -88 1488 -88 
Q 972 -88 605 314 
Q 238 716 238 1394 
Q 238 2128 614 2539 
Q 991 2950 1559 2950 
Q 2041 2950 2350 2633 
Q 2659 2316 2659 1784 
L 681 1784 
z
M 681 1966 
L 2006 1966 
Q 1991 2241 1941 2353 
Q 1863 2528 1708 2628 
Q 1553 2728 1384 2728 
Q 1125 2728 920 2526 
Q 716 2325 681 1966 
z
" transform="scale(0.015625)"/>
       <path id="TimesNewRomanPSMT-20" transform="scale(0.015625)"/>
       <path id="TimesNewRomanPSMT-28" d="M 1988 -1253 
L 1988 -1369 
Q 1516 -1131 1200 -813 
Q 750 -359 506 256 
Q 263 872 263 1534 
Q 263 2503 741 3301 
Q 1219 4100 1988 4444 
L 1988 4313 
Q 1603 4100 1356 3731 
Q 1109 3363 987 2797 
Q 866 2231 866 1616 
Q 866 947 969 400 
Q 1050 -31 1165 -292 
Q 1281 -553 1476 -793 
Q 1672 -1034 1988 -1253 
z
" transform="scale(0.015625)"/>
       <path id="TimesNewRomanPSMT-73" d="M 2050 2947 
L 2050 1972 
L 1947 1972 
Q 1828 2431 1642 2597 
Q 1456 2763 1169 2763 
Q 950 2763 815 2647 
Q 681 2531 681 2391 
Q 681 2216 781 2091 
Q 878 1963 1175 1819 
L 1631 1597 
Q 2266 1288 2266 781 
Q 2266 391 1970 151 
Q 1675 -88 1309 -88 
Q 1047 -88 709 6 
Q 606 38 541 38 
Q 469 38 428 -44 
L 325 -44 
L 325 978 
L 428 978 
Q 516 541 762 319 
Q 1009 97 1316 97 
Q 1531 97 1667 223 
Q 1803 350 1803 528 
Q 1803 744 1651 891 
Q 1500 1038 1047 1263 
Q 594 1488 453 1669 
Q 313 1847 313 2119 
Q 313 2472 555 2709 
Q 797 2947 1181 2947 
Q 1350 2947 1591 2875 
Q 1750 2828 1803 2828 
Q 1853 2828 1881 2850 
Q 1909 2872 1947 2947 
L 2050 2947 
z
" transform="scale(0.015625)"/>
       <path id="TimesNewRomanPSMT-29" d="M 144 4313 
L 144 4444 
Q 619 4209 934 3891 
Q 1381 3434 1625 2820 
Q 1869 2206 1869 1541 
Q 1869 572 1392 -226 
Q 916 -1025 144 -1369 
L 144 -1253 
Q 528 -1038 776 -670 
Q 1025 -303 1145 264 
Q 1266 831 1266 1447 
Q 1266 2113 1163 2663 
Q 1084 3094 967 3353 
Q 850 3613 656 3853 
Q 463 4094 144 4313 
z
" transform="scale(0.015625)"/>
      </defs>
      <use xlink:href="#TimesNewRomanPSMT-54"/>
      <use xlink:href="#TimesNewRomanPSMT-69" x="57.583984"/>
      <use xlink:href="#TimesNewRomanPSMT-6d" x="85.367188"/>
      <use xlink:href="#TimesNewRomanPSMT-65" x="163.150391"/>
      <use xlink:href="#TimesNewRomanPSMT-20" x="207.535156"/>
      <use xlink:href="#TimesNewRomanPSMT-28" x="232.535156"/>
      <use xlink:href="#TimesNewRomanPSMT-73" x="265.835938"/>
      <use xlink:href="#TimesNewRomanPSMT-29" x="304.751953"/>
     </g>
    </g>
   </g>
   <g id="matplotlib.axis_2">
    <g id="ytick_1">
     <g id="line2d_8">
      <defs>
       <path id="md71d74ac83" d="M 0 0 
L -3.5 0 
" style="stroke: #000000; stroke-width: 0.8"/>
      </defs>
      <g>
       <use xlink:href="#md71d74ac83" x="48.442188" y="292.9232" style="stroke: #000000; stroke-width: 0.8"/>
      </g>
     </g>
     <g id="text_9">
      <!-- 0.0 -->
      <g transform="translate(23.942188 297.783825)scale(0.14 -0.14)">
       <defs>
        <path id="TimesNewRomanPSMT-2e" d="M 800 606 
Q 947 606 1047 504 
Q 1147 403 1147 259 
Q 1147 116 1045 14 
Q 944 -88 800 -88 
Q 656 -88 554 14 
Q 453 116 453 259 
Q 453 406 554 506 
Q 656 606 800 606 
z
" transform="scale(0.015625)"/>
       </defs>
       <use xlink:href="#TimesNewRomanPSMT-30"/>
       <use xlink:href="#TimesNewRomanPSMT-2e" x="50"/>
       <use xlink:href="#TimesNewRomanPSMT-30" x="75"/>
      </g>
     </g>
    </g>
    <g id="ytick_2">
     <g id="line2d_9">
      <g>
       <use xlink:href="#md71d74ac83" x="48.442188" y="248.5712" style="stroke: #000000; stroke-width: 0.8"/>
      </g>
     </g>
     <g id="text_10">
      <!-- 0.2 -->
      <g transform="translate(23.942188 253.431825)scale(0.14 -0.14)">
       <use xlink:href="#TimesNewRomanPSMT-30"/>
       <use xlink:href="#TimesNewRomanPSMT-2e" x="50"/>
       <use xlink:href="#TimesNewRomanPSMT-32" x="75"/>
      </g>
     </g>
    </g>
    <g id="ytick_3">
     <g id="line2d_10">
      <g>
       <use xlink:href="#md71d74ac83" x="48.442188" y="204.2192" style="stroke: #000000; stroke-width: 0.8"/>
      </g>
     </g>
     <g id="text_11">
      <!-- 0.4 -->
      <g transform="translate(23.942188 209.079825)scale(0.14 -0.14)">
       <defs>
        <path id="TimesNewRomanPSMT-34" d="M 2978 1563 
L 2978 1119 
L 2409 1119 
L 2409 0 
L 1894 0 
L 1894 1119 
L 100 1119 
L 100 1519 
L 2066 4325 
L 2409 4325 
L 2409 1563 
L 2978 1563 
z
M 1894 1563 
L 1894 3666 
L 406 1563 
L 1894 1563 
z
" transform="scale(0.015625)"/>
       </defs>
       <use xlink:href="#TimesNewRomanPSMT-30"/>
       <use xlink:href="#TimesNewRomanPSMT-2e" x="50"/>
       <use xlink:href="#TimesNewRomanPSMT-34" x="75"/>
      </g>
     </g>
    </g>
    <g id="ytick_4">
     <g id="line2d_11">
      <g>
       <use xlink:href="#md71d74ac83" x="48.442188" y="159.8672" style="stroke: #000000; stroke-width: 0.8"/>
      </g>
     </g>
     <g id="text_12">
      <!-- 0.6 -->
      <g transform="translate(23.942188 164.727825)scale(0.14 -0.14)">
       <defs>
        <path id="TimesNewRomanPSMT-36" d="M 2869 4325 
L 2869 4209 
Q 2456 4169 2195 4045 
Q 1934 3922 1679 3669 
Q 1425 3416 1258 3105 
Q 1091 2794 978 2366 
Q 1428 2675 1881 2675 
Q 2316 2675 2634 2325 
Q 2953 1975 2953 1425 
Q 2953 894 2631 456 
Q 2244 -75 1606 -75 
Q 1172 -75 869 213 
Q 275 772 275 1663 
Q 275 2231 503 2743 
Q 731 3256 1154 3653 
Q 1578 4050 1965 4187 
Q 2353 4325 2688 4325 
L 2869 4325 
z
M 925 2138 
Q 869 1716 869 1456 
Q 869 1156 980 804 
Q 1091 453 1309 247 
Q 1469 100 1697 100 
Q 1969 100 2183 356 
Q 2397 613 2397 1088 
Q 2397 1622 2184 2012 
Q 1972 2403 1581 2403 
Q 1463 2403 1327 2353 
Q 1191 2303 925 2138 
z
" transform="scale(0.015625)"/>
       </defs>
       <use xlink:href="#TimesNewRomanPSMT-30"/>
       <use xlink:href="#TimesNewRomanPSMT-2e" x="50"/>
       <use xlink:href="#TimesNewRomanPSMT-36" x="75"/>
      </g>
     </g>
    </g>
    <g id="ytick_5">
     <g id="line2d_12">
      <g>
       <use xlink:href="#md71d74ac83" x="48.442188" y="115.5152" style="stroke: #000000; stroke-width: 0.8"/>
      </g>
     </g>
     <g id="text_13">
      <!-- 0.8 -->
      <g transform="translate(23.942188 120.375825)scale(0.14 -0.14)">
       <defs>
        <path id="TimesNewRomanPSMT-38" d="M 1228 2134 
Q 725 2547 579 2797 
Q 434 3047 434 3316 
Q 434 3728 753 4026 
Q 1072 4325 1600 4325 
Q 2113 4325 2425 4047 
Q 2738 3769 2738 3413 
Q 2738 3175 2569 2928 
Q 2400 2681 1866 2347 
Q 2416 1922 2594 1678 
Q 2831 1359 2831 1006 
Q 2831 559 2490 242 
Q 2150 -75 1597 -75 
Q 994 -75 656 303 
Q 388 606 388 966 
Q 388 1247 577 1523 
Q 766 1800 1228 2134 
z
M 1719 2469 
Q 2094 2806 2194 3001 
Q 2294 3197 2294 3444 
Q 2294 3772 2109 3958 
Q 1925 4144 1606 4144 
Q 1288 4144 1088 3959 
Q 888 3775 888 3528 
Q 888 3366 970 3203 
Q 1053 3041 1206 2894 
L 1719 2469 
z
M 1375 2016 
Q 1116 1797 991 1539 
Q 866 1281 866 981 
Q 866 578 1086 336 
Q 1306 94 1647 94 
Q 1984 94 2187 284 
Q 2391 475 2391 747 
Q 2391 972 2272 1150 
Q 2050 1481 1375 2016 
z
" transform="scale(0.015625)"/>
       </defs>
       <use xlink:href="#TimesNewRomanPSMT-30"/>
       <use xlink:href="#TimesNewRomanPSMT-2e" x="50"/>
       <use xlink:href="#TimesNewRomanPSMT-38" x="75"/>
      </g>
     </g>
    </g>
    <g id="ytick_6">
     <g id="line2d_13">
      <g>
       <use xlink:href="#md71d74ac83" x="48.442188" y="71.1632" style="stroke: #000000; stroke-width: 0.8"/>
      </g>
     </g>
     <g id="text_14">
      <!-- 1.0 -->
      <g transform="translate(23.942188 76.023825)scale(0.14 -0.14)">
       <use xlink:href="#TimesNewRomanPSMT-31"/>
       <use xlink:href="#TimesNewRomanPSMT-2e" x="50"/>
       <use xlink:href="#TimesNewRomanPSMT-30" x="75"/>
      </g>
     </g>
    </g>
    <g id="ytick_7">
     <g id="line2d_14">
      <g>
       <use xlink:href="#md71d74ac83" x="48.442188" y="26.8112" style="stroke: #000000; stroke-width: 0.8"/>
      </g>
     </g>
     <g id="text_15">
      <!-- 1.2 -->
      <g transform="translate(23.942188 31.671825)scale(0.14 -0.14)">
       <use xlink:href="#TimesNewRomanPSMT-31"/>
       <use xlink:href="#TimesNewRomanPSMT-2e" x="50"/>
       <use xlink:href="#TimesNewRomanPSMT-32" x="75"/>
      </g>
     </g>
    </g>
    <g id="text_16">
     <!-- Airflow Velocity (m/s) -->
     <g transform="translate(16.92125 223.507044)rotate(-90)scale(0.14 -0.14)">
      <defs>
       <path id="TimesNewRomanPSMT-41" d="M 2928 1419 
L 1288 1419 
L 1000 750 
Q 894 503 894 381 
Q 894 284 986 211 
Q 1078 138 1384 116 
L 1384 0 
L 50 0 
L 50 116 
Q 316 163 394 238 
Q 553 388 747 847 
L 2238 4334 
L 2347 4334 
L 3822 809 
Q 4000 384 4145 257 
Q 4291 131 4550 116 
L 4550 0 
L 2878 0 
L 2878 116 
Q 3131 128 3220 200 
Q 3309 272 3309 375 
Q 3309 513 3184 809 
L 2928 1419 
z
M 2841 1650 
L 2122 3363 
L 1384 1650 
L 2841 1650 
z
" transform="scale(0.015625)"/>
       <path id="TimesNewRomanPSMT-72" d="M 1038 2947 
L 1038 2303 
Q 1397 2947 1775 2947 
Q 1947 2947 2059 2842 
Q 2172 2738 2172 2600 
Q 2172 2478 2090 2393 
Q 2009 2309 1897 2309 
Q 1788 2309 1652 2417 
Q 1516 2525 1450 2525 
Q 1394 2525 1328 2463 
Q 1188 2334 1038 2041 
L 1038 669 
Q 1038 431 1097 309 
Q 1138 225 1241 169 
Q 1344 113 1538 113 
L 1538 0 
L 72 0 
L 72 113 
Q 291 113 397 181 
Q 475 231 506 341 
Q 522 394 522 644 
L 522 1753 
Q 522 2253 501 2348 
Q 481 2444 426 2487 
Q 372 2531 291 2531 
Q 194 2531 72 2484 
L 41 2597 
L 906 2947 
L 1038 2947 
z
" transform="scale(0.015625)"/>
       <path id="TimesNewRomanPSMT-66" d="M 1319 2638 
L 1319 756 
Q 1319 356 1406 250 
Q 1522 113 1716 113 
L 1975 113 
L 1975 0 
L 266 0 
L 266 113 
L 394 113 
Q 519 113 622 175 
Q 725 238 764 344 
Q 803 450 803 756 
L 803 2638 
L 247 2638 
L 247 2863 
L 803 2863 
L 803 3050 
Q 803 3478 940 3775 
Q 1078 4072 1361 4255 
Q 1644 4438 1997 4438 
Q 2325 4438 2600 4225 
Q 2781 4084 2781 3909 
Q 2781 3816 2700 3733 
Q 2619 3650 2525 3650 
Q 2453 3650 2373 3701 
Q 2294 3753 2178 3923 
Q 2063 4094 1966 4153 
Q 1869 4213 1750 4213 
Q 1606 4213 1506 4136 
Q 1406 4059 1362 3898 
Q 1319 3738 1319 3069 
L 1319 2863 
L 2056 2863 
L 2056 2638 
L 1319 2638 
z
" transform="scale(0.015625)"/>
       <path id="TimesNewRomanPSMT-6c" d="M 1184 4444 
L 1184 647 
Q 1184 378 1223 290 
Q 1263 203 1344 158 
Q 1425 113 1647 113 
L 1647 0 
L 244 0 
L 244 113 
Q 441 113 512 153 
Q 584 194 625 287 
Q 666 381 666 647 
L 666 3247 
Q 666 3731 644 3842 
Q 622 3953 573 3993 
Q 525 4034 450 4034 
Q 369 4034 244 3984 
L 191 4094 
L 1044 4444 
L 1184 4444 
z
" transform="scale(0.015625)"/>
       <path id="TimesNewRomanPSMT-6f" d="M 1600 2947 
Q 2250 2947 2644 2453 
Q 2978 2031 2978 1484 
Q 2978 1100 2793 706 
Q 2609 313 2286 112 
Q 1963 -88 1566 -88 
Q 919 -88 538 428 
Q 216 863 216 1403 
Q 216 1797 411 2186 
Q 606 2575 925 2761 
Q 1244 2947 1600 2947 
z
M 1503 2744 
Q 1338 2744 1170 2645 
Q 1003 2547 900 2300 
Q 797 2053 797 1666 
Q 797 1041 1045 587 
Q 1294 134 1700 134 
Q 2003 134 2200 384 
Q 2397 634 2397 1244 
Q 2397 2006 2069 2444 
Q 1847 2744 1503 2744 
z
" transform="scale(0.015625)"/>
       <path id="TimesNewRomanPSMT-77" d="M 41 2863 
L 1241 2863 
L 1241 2747 
Q 1075 2734 1023 2687 
Q 972 2641 972 2553 
Q 972 2456 1025 2319 
L 1638 672 
L 2253 2013 
L 2091 2434 
Q 2016 2622 1894 2694 
Q 1825 2738 1638 2747 
L 1638 2863 
L 3000 2863 
L 3000 2747 
Q 2775 2738 2681 2666 
Q 2619 2616 2619 2506 
Q 2619 2444 2644 2378 
L 3294 734 
L 3897 2319 
Q 3959 2488 3959 2588 
Q 3959 2647 3898 2694 
Q 3838 2741 3659 2747 
L 3659 2863 
L 4563 2863 
L 4563 2747 
Q 4291 2706 4163 2378 
L 3206 -88 
L 3078 -88 
L 2363 1741 
L 1528 -88 
L 1413 -88 
L 494 2319 
Q 403 2547 315 2626 
Q 228 2706 41 2747 
L 41 2863 
z
" transform="scale(0.015625)"/>
       <path id="TimesNewRomanPSMT-56" d="M 4544 4238 
L 4544 4122 
Q 4319 4081 4203 3978 
Q 4038 3825 3909 3509 
L 2431 -97 
L 2316 -97 
L 728 3556 
Q 606 3838 556 3900 
Q 478 3997 364 4051 
Q 250 4106 56 4122 
L 56 4238 
L 1788 4238 
L 1788 4122 
Q 1494 4094 1406 4022 
Q 1319 3950 1319 3838 
Q 1319 3681 1463 3350 
L 2541 866 
L 3541 3319 
Q 3688 3681 3688 3822 
Q 3688 3913 3597 3995 
Q 3506 4078 3291 4113 
Q 3275 4116 3238 4122 
L 3238 4238 
L 4544 4238 
z
" transform="scale(0.015625)"/>
       <path id="TimesNewRomanPSMT-63" d="M 2631 1088 
Q 2516 522 2178 217 
Q 1841 -88 1431 -88 
Q 944 -88 581 321 
Q 219 731 219 1428 
Q 219 2103 620 2525 
Q 1022 2947 1584 2947 
Q 2006 2947 2278 2723 
Q 2550 2500 2550 2259 
Q 2550 2141 2473 2067 
Q 2397 1994 2259 1994 
Q 2075 1994 1981 2113 
Q 1928 2178 1911 2362 
Q 1894 2547 1784 2644 
Q 1675 2738 1481 2738 
Q 1169 2738 978 2506 
Q 725 2200 725 1697 
Q 725 1184 976 792 
Q 1228 400 1656 400 
Q 1963 400 2206 609 
Q 2378 753 2541 1131 
L 2631 1088 
z
" transform="scale(0.015625)"/>
       <path id="TimesNewRomanPSMT-74" d="M 1031 3803 
L 1031 2863 
L 1700 2863 
L 1700 2644 
L 1031 2644 
L 1031 788 
Q 1031 509 1111 412 
Q 1191 316 1316 316 
Q 1419 316 1516 380 
Q 1613 444 1666 569 
L 1788 569 
Q 1678 263 1478 108 
Q 1278 -47 1066 -47 
Q 922 -47 784 33 
Q 647 113 581 261 
Q 516 409 516 719 
L 516 2644 
L 63 2644 
L 63 2747 
Q 234 2816 414 2980 
Q 594 3144 734 3369 
Q 806 3488 934 3803 
L 1031 3803 
z
" transform="scale(0.015625)"/>
       <path id="TimesNewRomanPSMT-79" d="M 38 2863 
L 1372 2863 
L 1372 2747 
L 1306 2747 
Q 1166 2747 1095 2686 
Q 1025 2625 1025 2534 
Q 1025 2413 1128 2197 
L 1825 753 
L 2466 2334 
Q 2519 2463 2519 2588 
Q 2519 2644 2497 2672 
Q 2472 2706 2419 2726 
Q 2366 2747 2231 2747 
L 2231 2863 
L 3163 2863 
L 3163 2747 
Q 3047 2734 2984 2696 
Q 2922 2659 2847 2556 
Q 2819 2513 2741 2316 
L 1575 -541 
Q 1406 -956 1132 -1168 
Q 859 -1381 606 -1381 
Q 422 -1381 303 -1275 
Q 184 -1169 184 -1031 
Q 184 -900 270 -820 
Q 356 -741 506 -741 
Q 609 -741 788 -809 
Q 913 -856 944 -856 
Q 1038 -856 1148 -759 
Q 1259 -663 1372 -384 
L 1575 113 
L 547 2272 
Q 500 2369 397 2513 
Q 319 2622 269 2659 
Q 197 2709 38 2747 
L 38 2863 
z
" transform="scale(0.015625)"/>
       <path id="TimesNewRomanPSMT-2f" d="M 1794 4444 
L 259 -88 
L 9 -88 
L 1544 4444 
L 1794 4444 
z
" transform="scale(0.015625)"/>
      </defs>
      <use xlink:href="#TimesNewRomanPSMT-41"/>
      <use xlink:href="#TimesNewRomanPSMT-69" x="72.216797"/>
      <use xlink:href="#TimesNewRomanPSMT-72" x="100"/>
      <use xlink:href="#TimesNewRomanPSMT-66" x="133.300781"/>
      <use xlink:href="#TimesNewRomanPSMT-6c" x="166.601562"/>
      <use xlink:href="#TimesNewRomanPSMT-6f" x="194.384766"/>
      <use xlink:href="#TimesNewRomanPSMT-77" x="244.384766"/>
      <use xlink:href="#TimesNewRomanPSMT-20" x="316.601562"/>
      <use xlink:href="#TimesNewRomanPSMT-56" x="339.851562"/>
      <use xlink:href="#TimesNewRomanPSMT-65" x="400.943359"/>
      <use xlink:href="#TimesNewRomanPSMT-6c" x="445.328125"/>
      <use xlink:href="#TimesNewRomanPSMT-6f" x="473.111328"/>
      <use xlink:href="#TimesNewRomanPSMT-63" x="523.111328"/>
      <use xlink:href="#TimesNewRomanPSMT-69" x="567.496094"/>
      <use xlink:href="#TimesNewRomanPSMT-74" x="595.279297"/>
      <use xlink:href="#TimesNewRomanPSMT-79" x="623.0625"/>
      <use xlink:href="#TimesNewRomanPSMT-20" x="673.0625"/>
      <use xlink:href="#TimesNewRomanPSMT-28" x="698.0625"/>
      <use xlink:href="#TimesNewRomanPSMT-6d" x="731.363281"/>
      <use xlink:href="#TimesNewRomanPSMT-2f" x="809.146484"/>
      <use xlink:href="#TimesNewRomanPSMT-73" x="836.929688"/>
      <use xlink:href="#TimesNewRomanPSMT-29" x="875.845703"/>
     </g>
    </g>
   </g>
   <g id="line2d_15">
    <path d="M 48.442188 279.6176 
L 49.632588 279.6176 
L 50.822988 277.4 
L 53.203788 268.5296 
L 54.394188 268.5296 
L 55.584588 270.7472 
L 57.965388 270.7472 
L 59.155788 272.9648 
L 60.346188 277.4 
L 61.536588 277.4 
L 62.726988 279.6176 
L 63.917388 277.4 
L 65.107788 279.6176 
L 66.298188 275.1824 
L 69.869388 281.8352 
L 72.250188 277.4 
L 73.440588 277.4 
L 74.630988 270.7472 
L 75.821388 268.5296 
L 78.202188 268.5296 
L 79.392588 266.312 
L 80.582988 275.1824 
L 81.773388 275.1824 
L 82.963788 270.7472 
L 85.344588 270.7472 
L 86.534988 264.0944 
L 87.725388 259.6592 
L 88.915788 264.0944 
L 90.106188 257.4416 
L 91.296588 266.312 
L 92.486988 281.8352 
L 93.677388 281.8352 
L 94.867788 277.4 
L 97.248588 277.4 
L 98.438988 279.6176 
L 100.819788 279.6176 
L 102.010188 277.4 
L 103.200588 277.4 
L 104.390988 279.6176 
L 105.581388 279.6176 
L 106.771788 281.8352 
L 107.962188 279.6176 
L 110.342988 266.312 
L 112.723788 275.1824 
L 118.675788 275.1824 
L 119.866188 281.8352 
L 121.056588 261.8768 
L 123.437388 210.872 
L 124.627788 224.1776 
L 125.818188 221.96 
L 127.008588 221.96 
L 128.198988 210.872 
L 129.389388 233.048 
L 130.579788 261.8768 
L 131.770188 253.0064 
L 132.960588 239.7008 
L 134.150988 244.136 
L 135.341388 259.6592 
L 137.722188 259.6592 
L 138.912588 272.9648 
L 140.102988 277.4 
L 141.293388 277.4 
L 142.483788 270.7472 
L 143.674188 270.7472 
L 144.864588 275.1824 
L 146.054988 268.5296 
L 148.435788 264.0944 
L 149.626188 270.7472 
L 150.816588 272.9648 
L 153.197388 272.9648 
L 154.387788 270.7472 
L 156.768588 275.1824 
L 157.958988 281.8352 
L 159.149388 279.6176 
L 160.339788 281.8352 
L 162.720588 281.8352 
L 163.910988 279.6176 
L 167.482188 279.6176 
L 168.672588 277.4 
L 169.862988 266.312 
L 171.053388 266.312 
L 172.243788 272.9648 
L 174.624588 281.8352 
L 175.814988 279.6176 
L 177.005388 279.6176 
L 178.195788 281.8352 
L 181.766988 281.8352 
L 182.957388 279.6176 
L 191.290188 279.6176 
L 192.480588 281.8352 
L 206.765388 281.8352 
L 207.955788 279.6176 
L 210.336588 279.6176 
L 211.526988 281.8352 
L 223.430988 281.8352 
L 224.621388 270.7472 
L 225.811788 270.7472 
L 227.002188 272.9648 
L 228.192588 277.4 
L 229.382988 279.6176 
L 230.573388 277.4 
L 231.763788 272.9648 
L 235.334988 266.312 
L 238.906188 272.9648 
L 240.096588 272.9648 
L 241.286988 270.7472 
L 242.477388 270.7472 
L 243.667788 272.9648 
L 244.858188 268.5296 
L 246.048588 270.7472 
L 247.238988 275.1824 
L 248.429388 275.1824 
L 249.619788 277.4 
L 250.810188 281.8352 
L 252.000588 279.6176 
L 254.381388 279.6176 
L 257.952588 272.9648 
L 259.142988 268.5296 
L 261.523788 272.9648 
L 262.714188 272.9648 
L 263.904588 270.7472 
L 265.094988 275.1824 
L 266.285388 272.9648 
L 267.475788 272.9648 
L 268.666188 275.1824 
L 269.856588 275.1824 
L 271.046988 277.4 
L 272.237388 277.4 
L 274.618188 281.8352 
L 278.189388 281.8352 
L 279.379788 279.6176 
L 281.760588 266.312 
L 282.950988 272.9648 
L 284.141388 266.312 
L 285.331788 268.5296 
L 286.522188 281.8352 
L 287.712588 277.4 
L 288.902988 279.6176 
L 290.093388 277.4 
L 294.854988 277.4 
L 297.235788 281.8352 
L 301.997388 281.8352 
L 303.187788 279.6176 
L 304.378188 281.8352 
L 306.758988 277.4 
L 307.949388 281.8352 
L 324.614988 281.8352 
L 325.805388 279.6176 
L 326.995788 279.6176 
L 328.186188 281.8352 
L 329.376588 281.8352 
L 331.757388 277.4 
L 332.947788 268.5296 
L 334.138188 268.5296 
L 335.328588 190.9136 
L 336.518988 197.5664 
L 337.709388 219.7424 
L 338.899788 206.4368 
L 340.090188 206.4368 
L 341.280588 215.3072 
L 342.470988 210.872 
L 343.661388 217.5248 
L 344.851788 228.6128 
L 346.042188 259.6592 
L 347.232588 279.6176 
L 348.422988 272.9648 
L 349.613388 246.3536 
L 350.803788 250.7888 
L 351.994188 257.4416 
L 353.184588 259.6592 
L 354.374988 272.9648 
L 355.565388 279.6176 
L 356.755788 270.7472 
L 357.946188 266.312 
L 359.136588 266.312 
L 360.326988 264.0944 
L 361.517388 268.5296 
L 362.707788 268.5296 
L 363.898188 272.9648 
L 365.088588 270.7472 
L 366.278988 264.0944 
L 367.469388 248.5712 
L 368.659788 208.6544 
L 369.850188 175.3904 
L 371.040588 166.52 
L 372.230988 111.08 
L 373.421388 108.8624 
L 374.611788 153.2144 
L 375.802188 142.1264 
L 376.992588 157.6496 
L 378.182988 197.5664 
L 379.373388 197.5664 
L 380.563788 162.0848 
L 381.754188 230.8304 
L 382.944588 237.4832 
L 384.134988 226.3952 
L 385.325388 241.9184 
L 386.515788 241.9184 
L 387.706188 246.3536 
L 388.896588 261.8768 
L 390.086988 266.312 
L 391.277388 259.6592 
L 392.467788 275.1824 
L 394.848588 275.1824 
L 396.038988 270.7472 
L 397.229388 272.9648 
L 399.610188 272.9648 
L 400.800588 275.1824 
L 401.990988 279.6176 
L 403.181388 281.8352 
L 404.371788 281.8352 
L 404.371788 281.8352 
" clip-path="url(#pfa52dabc65)" style="fill: none; stroke: #e4392e; stroke-width: 1.3; stroke-linecap: square"/>
   </g>
   <g id="patch_3">
    <path d="M 48.442188 292.9232 
L 48.442188 26.8112 
" style="fill: none; stroke: #000000; stroke-width: 0.8; stroke-linejoin: miter; stroke-linecap: square"/>
   </g>
   <g id="patch_4">
    <path d="M 405.562188 292.9232 
L 405.562188 26.8112 
" style="fill: none; stroke: #000000; stroke-width: 0.8; stroke-linejoin: miter; stroke-linecap: square"/>
   </g>
   <g id="patch_5">
    <path d="M 48.442188 292.9232 
L 405.562188 292.9232 
" style="fill: none; stroke: #000000; stroke-width: 0.8; stroke-linejoin: miter; stroke-linecap: square"/>
   </g>
  </g>
  <g id="axes_2">
   <g id="matplotlib.axis_3">
    <g id="ytick_8">
     <g id="line2d_16">
      <defs>
       <path id="me0cbb7ddc1" d="M 0 0 
L 3.5 0 
" style="stroke: #000000; stroke-width: 0.8"/>
      </defs>
      <g>
       <use xlink:href="#me0cbb7ddc1" x="405.562188" y="292.9232" style="stroke: #000000; stroke-width: 0.8"/>
      </g>
     </g>
     <g id="text_17">
      <!-- 0 -->
      <g transform="translate(412.562188 297.783825)scale(0.14 -0.14)">
       <use xlink:href="#TimesNewRomanPSMT-30"/>
      </g>
     </g>
    </g>
    <g id="ytick_9">
     <g id="line2d_17">
      <g>
       <use xlink:href="#me0cbb7ddc1" x="405.562188" y="248.5712" style="stroke: #000000; stroke-width: 0.8"/>
      </g>
     </g>
     <g id="text_18">
      <!-- 60 -->
      <g transform="translate(412.562188 253.431825)scale(0.14 -0.14)">
       <use xlink:href="#TimesNewRomanPSMT-36"/>
       <use xlink:href="#TimesNewRomanPSMT-30" x="50"/>
      </g>
     </g>
    </g>
    <g id="ytick_10">
     <g id="line2d_18">
      <g>
       <use xlink:href="#me0cbb7ddc1" x="405.562188" y="204.2192" style="stroke: #000000; stroke-width: 0.8"/>
      </g>
     </g>
     <g id="text_19">
      <!-- 120 -->
      <g transform="translate(412.562188 209.079825)scale(0.14 -0.14)">
       <use xlink:href="#TimesNewRomanPSMT-31"/>
       <use xlink:href="#TimesNewRomanPSMT-32" x="50"/>
       <use xlink:href="#TimesNewRomanPSMT-30" x="100"/>
      </g>
     </g>
    </g>
    <g id="ytick_11">
     <g id="line2d_19">
      <g>
       <use xlink:href="#me0cbb7ddc1" x="405.562188" y="159.8672" style="stroke: #000000; stroke-width: 0.8"/>
      </g>
     </g>
     <g id="text_20">
      <!-- 180 -->
      <g transform="translate(412.562188 164.727825)scale(0.14 -0.14)">
       <use xlink:href="#TimesNewRomanPSMT-31"/>
       <use xlink:href="#TimesNewRomanPSMT-38" x="50"/>
       <use xlink:href="#TimesNewRomanPSMT-30" x="100"/>
      </g>
     </g>
    </g>
    <g id="ytick_12">
     <g id="line2d_20">
      <g>
       <use xlink:href="#me0cbb7ddc1" x="405.562188" y="115.5152" style="stroke: #000000; stroke-width: 0.8"/>
      </g>
     </g>
     <g id="text_21">
      <!-- 240 -->
      <g transform="translate(412.562188 120.375825)scale(0.14 -0.14)">
       <use xlink:href="#TimesNewRomanPSMT-32"/>
       <use xlink:href="#TimesNewRomanPSMT-34" x="50"/>
       <use xlink:href="#TimesNewRomanPSMT-30" x="100"/>
      </g>
     </g>
    </g>
    <g id="ytick_13">
     <g id="line2d_21">
      <g>
       <use xlink:href="#me0cbb7ddc1" x="405.562188" y="71.1632" style="stroke: #000000; stroke-width: 0.8"/>
      </g>
     </g>
     <g id="text_22">
      <!-- 300 -->
      <g transform="translate(412.562188 76.023825)scale(0.14 -0.14)">
       <use xlink:href="#TimesNewRomanPSMT-33"/>
       <use xlink:href="#TimesNewRomanPSMT-30" x="50"/>
       <use xlink:href="#TimesNewRomanPSMT-30" x="100"/>
      </g>
     </g>
    </g>
    <g id="ytick_14">
     <g id="line2d_22">
      <g>
       <use xlink:href="#me0cbb7ddc1" x="405.562188" y="26.8112" style="stroke: #000000; stroke-width: 0.8"/>
      </g>
     </g>
     <g id="text_23">
      <!-- 360 -->
      <g transform="translate(412.562188 31.671825)scale(0.14 -0.14)">
       <use xlink:href="#TimesNewRomanPSMT-33"/>
       <use xlink:href="#TimesNewRomanPSMT-36" x="50"/>
       <use xlink:href="#TimesNewRomanPSMT-30" x="100"/>
      </g>
     </g>
    </g>
    <g id="text_24">
     <!-- Airflow Direction (°) -->
     <g transform="translate(447.283438 219.424075)rotate(-90)scale(0.14 -0.14)">
      <defs>
       <path id="TimesNewRomanPSMT-44" d="M 109 0 
L 109 116 
L 269 116 
Q 538 116 650 288 
Q 719 391 719 750 
L 719 3488 
Q 719 3884 631 3984 
Q 509 4122 269 4122 
L 109 4122 
L 109 4238 
L 1834 4238 
Q 2784 4238 3279 4022 
Q 3775 3806 4076 3303 
Q 4378 2800 4378 2141 
Q 4378 1256 3841 663 
Q 3238 0 2003 0 
L 109 0 
z
M 1319 306 
Q 1716 219 1984 219 
Q 2709 219 3187 728 
Q 3666 1238 3666 2109 
Q 3666 2988 3187 3494 
Q 2709 4000 1959 4000 
Q 1678 4000 1319 3909 
L 1319 306 
z
" transform="scale(0.015625)"/>
       <path id="TimesNewRomanPSMT-6e" d="M 1034 2341 
Q 1538 2947 1994 2947 
Q 2228 2947 2397 2830 
Q 2566 2713 2666 2444 
Q 2734 2256 2734 1869 
L 2734 647 
Q 2734 375 2778 278 
Q 2813 200 2889 156 
Q 2966 113 3172 113 
L 3172 0 
L 1756 0 
L 1756 113 
L 1816 113 
Q 2016 113 2095 173 
Q 2175 234 2206 353 
Q 2219 400 2219 647 
L 2219 1819 
Q 2219 2209 2117 2386 
Q 2016 2563 1775 2563 
Q 1403 2563 1034 2156 
L 1034 647 
Q 1034 356 1069 288 
Q 1113 197 1189 155 
Q 1266 113 1500 113 
L 1500 0 
L 84 0 
L 84 113 
L 147 113 
Q 366 113 442 223 
Q 519 334 519 647 
L 519 1709 
Q 519 2225 495 2337 
Q 472 2450 423 2490 
Q 375 2531 294 2531 
Q 206 2531 84 2484 
L 38 2597 
L 900 2947 
L 1034 2947 
L 1034 2341 
z
" transform="scale(0.015625)"/>
       <path id="TimesNewRomanPSMT-b0" d="M 1266 4331 
Q 1669 4331 1948 4050 
Q 2228 3769 2228 3369 
Q 2228 2972 1947 2690 
Q 1666 2409 1266 2409 
Q 869 2409 587 2690 
Q 306 2972 306 3369 
Q 306 3769 586 4050 
Q 866 4331 1266 4331 
z
M 1266 4069 
Q 975 4069 772 3866 
Q 569 3663 569 3372 
Q 569 3084 772 2879 
Q 975 2675 1266 2675 
Q 1553 2675 1758 2879 
Q 1963 3084 1963 3372 
Q 1963 3663 1759 3866 
Q 1556 4069 1266 4069 
z
" transform="scale(0.015625)"/>
      </defs>
      <use xlink:href="#TimesNewRomanPSMT-41"/>
      <use xlink:href="#TimesNewRomanPSMT-69" x="72.216797"/>
      <use xlink:href="#TimesNewRomanPSMT-72" x="100"/>
      <use xlink:href="#TimesNewRomanPSMT-66" x="133.300781"/>
      <use xlink:href="#TimesNewRomanPSMT-6c" x="166.601562"/>
      <use xlink:href="#TimesNewRomanPSMT-6f" x="194.384766"/>
      <use xlink:href="#TimesNewRomanPSMT-77" x="244.384766"/>
      <use xlink:href="#TimesNewRomanPSMT-20" x="316.601562"/>
      <use xlink:href="#TimesNewRomanPSMT-44" x="341.601562"/>
      <use xlink:href="#TimesNewRomanPSMT-69" x="413.818359"/>
      <use xlink:href="#TimesNewRomanPSMT-72" x="441.601562"/>
      <use xlink:href="#TimesNewRomanPSMT-65" x="474.902344"/>
      <use xlink:href="#TimesNewRomanPSMT-63" x="519.287109"/>
      <use xlink:href="#TimesNewRomanPSMT-74" x="563.671875"/>
      <use xlink:href="#TimesNewRomanPSMT-69" x="591.455078"/>
      <use xlink:href="#TimesNewRomanPSMT-6f" x="619.238281"/>
      <use xlink:href="#TimesNewRomanPSMT-6e" x="669.238281"/>
      <use xlink:href="#TimesNewRomanPSMT-20" x="719.238281"/>
      <use xlink:href="#TimesNewRomanPSMT-28" x="744.238281"/>
      <use xlink:href="#TimesNewRomanPSMT-b0" x="777.539062"/>
      <use xlink:href="#TimesNewRomanPSMT-29" x="817.529297"/>
     </g>
    </g>
   </g>
   <g id="line2d_23">
    <path d="M 48.442188 159.867088 
L 49.632588 159.867088 
L 50.822988 256.702414 
L 52.013388 253.745579 
L 53.203788 256.702414 
L 54.394188 255.963184 
L 55.584588 253.745579 
L 56.774988 248.571096 
L 57.965388 242.657765 
L 59.155788 247.832036 
L 60.346188 240.44016 
L 61.536588 227.873589 
L 62.726988 227.134529 
L 63.917388 231.569739 
L 65.107788 236.74401 
L 66.298188 239.700676 
L 67.488588 249.31058 
L 68.678988 256.702414 
L 69.869388 27.5504 
L 71.059788 32.724786 
L 72.250188 33.464016 
L 73.440588 285.531197 
L 74.630988 284.052779 
L 75.821388 27.5504 
L 77.011788 40.856019 
L 78.202188 51.204815 
L 79.392588 67.467196 
L 80.582988 65.988821 
L 81.773388 57.857588 
L 82.963788 62.292798 
L 84.154188 64.510403 
L 85.344588 44.551999 
L 86.534988 276.660818 
L 87.725388 286.270384 
L 88.915788 268.529585 
L 90.106188 286.270384 
L 91.296588 277.400006 
L 92.486988 247.832036 
L 93.677388 247.832036 
L 94.867788 93.339356 
L 96.058188 65.249591 
L 97.248588 48.24798 
L 98.438988 51.204815 
L 100.819788 51.204815 
L 102.010188 60.814381 
L 103.200588 51.204815 
L 104.390988 34.942391 
L 105.581388 38.638414 
L 106.771788 46.769604 
L 107.962188 72.641425 
L 109.152588 85.207995 
L 110.342988 89.643206 
L 111.533388 94.817477 
L 112.723788 89.643206 
L 118.675788 89.643206 
L 119.866188 258.180789 
L 121.056588 260.398395 
L 122.246988 35.681621 
L 123.437388 244.87537 
L 124.627788 254.484809 
L 125.818188 286.270384 
L 127.008588 34.203203 
L 128.198988 38.638414 
L 129.389388 31.985598 
L 130.579788 289.966399 
L 131.770188 256.702414 
L 132.960588 284.052779 
L 134.150988 285.531197 
L 135.341388 289.966399 
L 136.531788 288.48799 
L 137.722188 270.008003 
L 138.912588 258.180789 
L 140.102988 270.74719 
L 141.293388 270.74719 
L 142.483788 94.817477 
L 143.674188 88.904145 
L 144.864588 54.161607 
L 146.054988 48.24798 
L 147.245388 50.465585 
L 148.435788 42.334394 
L 149.626188 68.945614 
L 150.816588 60.814381 
L 152.006988 65.988821 
L 153.197388 50.465585 
L 154.387788 292.184 
L 155.578188 273.703983 
L 156.768588 263.355187 
L 157.958988 284.052779 
L 159.149388 255.963184 
L 160.339788 287.009614 
L 162.720588 287.009614 
L 163.910988 82.25133 
L 165.101388 94.078416 
L 166.291788 94.078416 
L 167.482188 241.918281 
L 168.672588 246.353491 
L 169.862988 243.396825 
L 171.053388 249.31058 
L 172.243788 251.528016 
L 173.434188 255.223997 
L 174.624588 252.267204 
L 175.814988 235.265465 
L 177.005388 235.265465 
L 178.195788 242.657765 
L 179.386188 231.569739 
L 180.576588 237.48307 
L 181.766988 238.222554 
L 182.957388 227.873589 
L 184.147788 228.61265 
L 188.909388 228.61265 
L 190.099788 249.31058 
L 191.290188 231.569739 
L 192.480588 227.134529 
L 200.813388 227.134529 
L 202.003788 206.436598 
L 203.194188 214.567958 
L 204.384588 199.044722 
L 205.574988 201.262327 
L 206.765388 200.523266 
L 207.955788 202.001811 
L 209.146188 199.784206 
L 210.336588 193.870451 
L 211.526988 200.523266 
L 212.717388 216.785563 
L 213.907788 221.220774 
L 215.098188 227.134529 
L 216.288588 218.264108 
L 222.240588 218.264108 
L 223.430988 184.260969 
L 224.621388 178.347214 
L 225.811788 173.172944 
L 227.002188 176.129609 
L 228.192588 180.56482 
L 229.382988 189.43524 
L 230.573388 193.13139 
L 231.763788 196.088056 
L 232.954188 186.478575 
L 234.144588 191.652846 
L 235.334988 193.13139 
L 236.525388 193.870451 
L 237.715788 192.391906 
L 238.906188 195.348995 
L 240.096588 190.174301 
L 241.286988 184.260969 
L 242.477388 192.391906 
L 243.667788 193.870451 
L 244.858188 205.697537 
L 246.048588 211.611292 
L 247.238988 216.785563 
L 248.429388 223.438379 
L 249.619788 221.220774 
L 250.810188 228.61265 
L 252.000588 228.61265 
L 253.190988 236.004949 
L 254.381388 242.657765 
L 255.571788 246.353491 
L 256.762188 244.87537 
L 257.952588 240.44016 
L 260.333388 238.961615 
L 261.523788 233.787344 
L 262.714188 231.569739 
L 263.904588 230.091194 
L 266.285388 225.655984 
L 267.475788 230.830255 
L 268.666188 238.222554 
L 271.046988 244.135886 
L 272.237388 240.44016 
L 273.427788 241.918281 
L 274.618188 247.092975 
L 276.998988 247.092975 
L 278.189388 42.334394 
L 279.379788 50.465585 
L 280.570188 46.769604 
L 281.760588 36.420808 
L 282.950988 287.748802 
L 284.141388 34.203203 
L 285.331788 280.356799 
L 286.522188 285.531197 
L 287.712588 292.184 
L 288.902988 278.139194 
L 290.093388 249.31058 
L 294.854988 249.31058 
L 296.045388 285.531197 
L 297.235788 267.790398 
L 298.426188 264.094417 
L 299.616588 264.094417 
L 300.806988 207.176082 
L 301.997388 207.176082 
L 303.187788 146.561456 
L 304.378188 133.995309 
L 305.568588 156.910422 
L 306.758988 149.518546 
L 307.949388 126.60301 
L 324.614988 126.60301 
L 325.805388 239.700676 
L 326.995788 235.265465 
L 328.186188 227.873589 
L 329.376588 224.916923 
L 330.566988 224.916923 
L 331.757388 227.134529 
L 332.947788 234.526405 
L 334.138188 268.529585 
L 335.328588 284.792009 
L 336.518988 275.182401 
L 337.709388 235.265465 
L 338.899788 211.611292 
L 340.090188 236.004949 
L 341.280588 266.31198 
L 342.470988 275.182401 
L 343.661388 275.921588 
L 344.851788 290.705599 
L 346.042188 265.572793 
L 347.232588 262.616 
L 348.422988 266.31198 
L 349.613388 31.24641 
L 350.803788 38.638414 
L 351.994188 37.899184 
L 354.374988 57.1184 
L 355.565388 53.42242 
L 356.755788 286.270384 
L 357.946188 278.139194 
L 360.326988 284.052779 
L 361.517388 275.182401 
L 362.707788 245.614431 
L 363.898188 238.961615 
L 365.088588 240.44016 
L 366.278988 247.092975 
L 367.469388 249.31058 
L 368.659788 255.223997 
L 369.850188 275.182401 
L 371.040588 270.008003 
L 372.230988 284.792009 
L 373.421388 281.835216 
L 374.611788 272.964796 
L 375.802188 272.225608 
L 376.992588 281.835216 
L 378.182988 27.5504 
L 379.373388 281.835216 
L 380.563788 275.921588 
L 381.754188 288.48799 
L 382.944588 281.095986 
L 384.134988 275.921588 
L 385.325388 290.705599 
L 386.515788 32.724786 
L 387.706188 40.856019 
L 388.896588 60.814381 
L 390.086988 34.942391 
L 391.277388 57.857588 
L 392.467788 64.510403 
L 393.658188 64.510403 
L 394.848588 236.004949 
L 396.038988 254.484809 
L 397.229388 268.529585 
L 398.419788 245.614431 
L 399.610188 245.614431 
L 400.800588 60.075193 
L 401.990988 65.988821 
L 403.181388 48.98721 
L 404.371788 48.98721 
L 404.371788 48.98721 
" clip-path="url(#pfa52dabc65)" style="fill: none; stroke: #3979f2; stroke-width: 1.3; stroke-linecap: square"/>
   </g>
   <g id="patch_6">
    <path d="M 48.442188 292.9232 
L 48.442188 26.8112 
" style="fill: none; stroke: #000000; stroke-width: 0.8; stroke-linejoin: miter; stroke-linecap: square"/>
   </g>
   <g id="patch_7">
    <path d="M 405.562188 292.9232 
L 405.562188 26.8112 
" style="fill: none; stroke: #000000; stroke-width: 0.8; stroke-linejoin: miter; stroke-linecap: square"/>
   </g>
   <g id="patch_8">
    <path d="M 48.442188 292.9232 
L 405.562188 292.9232 
" style="fill: none; stroke: #000000; stroke-width: 0.8; stroke-linejoin: miter; stroke-linecap: square"/>
   </g>
   <g id="legend_1">
    <g id="line2d_24">
     <path d="M 89.611788 17.7 
L 103.611788 17.7 
L 117.611788 17.7 
" style="fill: none; stroke: #e4392e; stroke-width: 1.3; stroke-linecap: square"/>
    </g>
    <g id="text_25">
     <!-- Airflow Velocity -->
     <g transform="translate(128.811788 22.6)scale(0.14 -0.14)">
      <use xlink:href="#TimesNewRomanPSMT-41"/>
      <use xlink:href="#TimesNewRomanPSMT-69" x="72.216797"/>
      <use xlink:href="#TimesNewRomanPSMT-72" x="100"/>
      <use xlink:href="#TimesNewRomanPSMT-66" x="133.300781"/>
      <use xlink:href="#TimesNewRomanPSMT-6c" x="166.601562"/>
      <use xlink:href="#TimesNewRomanPSMT-6f" x="194.384766"/>
      <use xlink:href="#TimesNewRomanPSMT-77" x="244.384766"/>
      <use xlink:href="#TimesNewRomanPSMT-20" x="316.601562"/>
      <use xlink:href="#TimesNewRomanPSMT-56" x="339.851562"/>
      <use xlink:href="#TimesNewRomanPSMT-65" x="400.943359"/>
      <use xlink:href="#TimesNewRomanPSMT-6c" x="445.328125"/>
      <use xlink:href="#TimesNewRomanPSMT-6f" x="473.111328"/>
      <use xlink:href="#TimesNewRomanPSMT-63" x="523.111328"/>
      <use xlink:href="#TimesNewRomanPSMT-69" x="567.496094"/>
      <use xlink:href="#TimesNewRomanPSMT-74" x="595.279297"/>
      <use xlink:href="#TimesNewRomanPSMT-79" x="623.0625"/>
     </g>
    </g>
    <g id="line2d_25">
     <path d="M 251.040538 17.7 
L 265.040538 17.7 
L 279.040538 17.7 
" style="fill: none; stroke: #3979f2; stroke-width: 1.3; stroke-linecap: square"/>
    </g>
    <g id="text_26">
     <!-- Airflow Direction -->
     <g transform="translate(290.240538 22.6)scale(0.14 -0.14)">
      <use xlink:href="#TimesNewRomanPSMT-41"/>
      <use xlink:href="#TimesNewRomanPSMT-69" x="72.216797"/>
      <use xlink:href="#TimesNewRomanPSMT-72" x="100"/>
      <use xlink:href="#TimesNewRomanPSMT-66" x="133.300781"/>
      <use xlink:href="#TimesNewRomanPSMT-6c" x="166.601562"/>
      <use xlink:href="#TimesNewRomanPSMT-6f" x="194.384766"/>
      <use xlink:href="#TimesNewRomanPSMT-77" x="244.384766"/>
      <use xlink:href="#TimesNewRomanPSMT-20" x="316.601562"/>
      <use xlink:href="#TimesNewRomanPSMT-44" x="341.601562"/>
      <use xlink:href="#TimesNewRomanPSMT-69" x="413.818359"/>
      <use xlink:href="#TimesNewRomanPSMT-72" x="441.601562"/>
      <use xlink:href="#TimesNewRomanPSMT-65" x="474.902344"/>
      <use xlink:href="#TimesNewRomanPSMT-63" x="519.287109"/>
      <use xlink:href="#TimesNewRomanPSMT-74" x="563.671875"/>
      <use xlink:href="#TimesNewRomanPSMT-69" x="591.455078"/>
      <use xlink:href="#TimesNewRomanPSMT-6f" x="619.238281"/>
      <use xlink:href="#TimesNewRomanPSMT-6e" x="669.238281"/>
     </g>
    </g>
   </g>
  </g>
 </g>
 <defs>
  <clipPath id="pfa52dabc65">
   <rect x="48.442188" y="26.8112" width="357.12" height="266.112"/>
  </clipPath>
 </defs>
</svg>
