<?xml version="1.0" encoding="utf-8" standalone="no"?>
<!DOCTYPE svg PUBLIC "-//W3C//DTD SVG 1.1//EN"
  "http://www.w3.org/Graphics/SVG/1.1/DTD/svg11.dtd">
<svg xmlns:xlink="http://www.w3.org/1999/xlink" width="423.235938pt" height="333.055075pt" viewBox="0 0 423.235938 333.055075" xmlns="http://www.w3.org/2000/svg" version="1.1">
 <metadata>
  <rdf:RDF xmlns:dc="http://purl.org/dc/elements/1.1/" xmlns:cc="http://creativecommons.org/ns#" xmlns:rdf="http://www.w3.org/1999/02/22-rdf-syntax-ns#">
   <cc:Work>
    <dc:type rdf:resource="http://purl.org/dc/dcmitype/StillImage"/>
    <dc:date>2023-02-02T14:15:06.471790</dc:date>
    <dc:format>image/svg+xml</dc:format>
    <dc:creator>
     <cc:Agent>
      <dc:title>Matplotlib v3.5.1, https://matplotlib.org/</dc:title>
     </cc:Agent>
    </dc:creator>
   </cc:Work>
  </rdf:RDF>
 </metadata>
 <defs>
  <style type="text/css">*{stroke-linejoin: round; stroke-linecap: butt}</style>
 </defs>
 <g id="figure_1">
  <g id="patch_1">
   <path d="M 0 333.055075 
L 423.235938 333.055075 
L 423.235938 0 
L 0 0 
z
" style="fill: #ffffff"/>
  </g>
  <g id="axes_1">
   <g id="patch_2">
    <path d="M 48.415938 292.9232 
L 405.535938 292.9232 
L 405.535938 26.8112 
L 48.415938 26.8112 
z
" style="fill: #ffffff"/>
   </g>
   <g id="matplotlib.axis_1">
    <g id="xtick_1">
     <g id="line2d_1">
      <defs>
       <path id="m6edc277e7d" d="M 0 0 
L 0 -3.5 
" style="stroke: #000000; stroke-width: 0.8"/>
      </defs>
      <g>
       <use xlink:href="#m6edc277e7d" x="48.415938" y="292.9232" style="stroke: #000000; stroke-width: 0.8"/>
      </g>
     </g>
     <g id="text_1">
      <!-- 0 -->
      <g transform="translate(44.915938 306.14445)scale(0.14 -0.14)">
       <defs>
        <path id="TimesNewRomanPSMT-30" d="M 231 2094 
Q 231 2819 450 3342 
Q 669 3866 1031 4122 
Q 1313 4325 1613 4325 
Q 2100 4325 2488 3828 
Q 2972 3213 2972 2159 
Q 2972 1422 2759 906 
Q 2547 391 2217 158 
Q 1888 -75 1581 -75 
Q 975 -75 572 641 
Q 231 1244 231 2094 
z
M 844 2016 
Q 844 1141 1059 588 
Q 1238 122 1591 122 
Q 1759 122 1940 273 
Q 2122 425 2216 781 
Q 2359 1319 2359 2297 
Q 2359 3022 2209 3506 
Q 2097 3866 1919 4016 
Q 1791 4119 1609 4119 
Q 1397 4119 1231 3928 
Q 1006 3669 925 3112 
Q 844 2556 844 2016 
z
" transform="scale(0.015625)"/>
       </defs>
       <use xlink:href="#TimesNewRomanPSMT-30"/>
      </g>
     </g>
    </g>
    <g id="xtick_2">
     <g id="line2d_2">
      <g>
       <use xlink:href="#m6edc277e7d" x="107.935938" y="292.9232" style="stroke: #000000; stroke-width: 0.8"/>
      </g>
     </g>
     <g id="text_2">
      <!-- 50 -->
      <g transform="translate(100.935938 306.14445)scale(0.14 -0.14)">
       <defs>
        <path id="TimesNewRomanPSMT-35" d="M 2778 4238 
L 2534 3706 
L 1259 3706 
L 981 3138 
Q 1809 3016 2294 2522 
Q 2709 2097 2709 1522 
Q 2709 1188 2573 903 
Q 2438 619 2231 419 
Q 2025 219 1772 97 
Q 1413 -75 1034 -75 
Q 653 -75 479 54 
Q 306 184 306 341 
Q 306 428 378 495 
Q 450 563 559 563 
Q 641 563 702 538 
Q 763 513 909 409 
Q 1144 247 1384 247 
Q 1750 247 2026 523 
Q 2303 800 2303 1197 
Q 2303 1581 2056 1914 
Q 1809 2247 1375 2428 
Q 1034 2569 447 2591 
L 1259 4238 
L 2778 4238 
z
" transform="scale(0.015625)"/>
       </defs>
       <use xlink:href="#TimesNewRomanPSMT-35"/>
       <use xlink:href="#TimesNewRomanPSMT-30" x="50"/>
      </g>
     </g>
    </g>
    <g id="xtick_3">
     <g id="line2d_3">
      <g>
       <use xlink:href="#m6edc277e7d" x="167.455938" y="292.9232" style="stroke: #000000; stroke-width: 0.8"/>
      </g>
     </g>
     <g id="text_3">
      <!-- 100 -->
      <g transform="translate(156.955938 306.14445)scale(0.14 -0.14)">
       <defs>
        <path id="TimesNewRomanPSMT-31" d="M 750 3822 
L 1781 4325 
L 1884 4325 
L 1884 747 
Q 1884 391 1914 303 
Q 1944 216 2037 169 
Q 2131 122 2419 116 
L 2419 0 
L 825 0 
L 825 116 
Q 1125 122 1212 167 
Q 1300 213 1334 289 
Q 1369 366 1369 747 
L 1369 3034 
Q 1369 3497 1338 3628 
Q 1316 3728 1258 3775 
Q 1200 3822 1119 3822 
Q 1003 3822 797 3725 
L 750 3822 
z
" transform="scale(0.015625)"/>
       </defs>
       <use xlink:href="#TimesNewRomanPSMT-31"/>
       <use xlink:href="#TimesNewRomanPSMT-30" x="50"/>
       <use xlink:href="#TimesNewRomanPSMT-30" x="100"/>
      </g>
     </g>
    </g>
    <g id="xtick_4">
     <g id="line2d_4">
      <g>
       <use xlink:href="#m6edc277e7d" x="226.975938" y="292.9232" style="stroke: #000000; stroke-width: 0.8"/>
      </g>
     </g>
     <g id="text_4">
      <!-- 150 -->
      <g transform="translate(216.475938 306.14445)scale(0.14 -0.14)">
       <use xlink:href="#TimesNewRomanPSMT-31"/>
       <use xlink:href="#TimesNewRomanPSMT-35" x="50"/>
       <use xlink:href="#TimesNewRomanPSMT-30" x="100"/>
      </g>
     </g>
    </g>
    <g id="xtick_5">
     <g id="line2d_5">
      <g>
       <use xlink:href="#m6edc277e7d" x="286.495938" y="292.9232" style="stroke: #000000; stroke-width: 0.8"/>
      </g>
     </g>
     <g id="text_5">
      <!-- 200 -->
      <g transform="translate(275.995938 306.14445)scale(0.14 -0.14)">
       <defs>
        <path id="TimesNewRomanPSMT-32" d="M 2934 816 
L 2638 0 
L 138 0 
L 138 116 
Q 1241 1122 1691 1759 
Q 2141 2397 2141 2925 
Q 2141 3328 1894 3587 
Q 1647 3847 1303 3847 
Q 991 3847 742 3664 
Q 494 3481 375 3128 
L 259 3128 
Q 338 3706 661 4015 
Q 984 4325 1469 4325 
Q 1984 4325 2329 3994 
Q 2675 3663 2675 3213 
Q 2675 2891 2525 2569 
Q 2294 2063 1775 1497 
Q 997 647 803 472 
L 1909 472 
Q 2247 472 2383 497 
Q 2519 522 2628 598 
Q 2738 675 2819 816 
L 2934 816 
z
" transform="scale(0.015625)"/>
       </defs>
       <use xlink:href="#TimesNewRomanPSMT-32"/>
       <use xlink:href="#TimesNewRomanPSMT-30" x="50"/>
       <use xlink:href="#TimesNewRomanPSMT-30" x="100"/>
      </g>
     </g>
    </g>
    <g id="xtick_6">
     <g id="line2d_6">
      <g>
       <use xlink:href="#m6edc277e7d" x="346.015938" y="292.9232" style="stroke: #000000; stroke-width: 0.8"/>
      </g>
     </g>
     <g id="text_6">
      <!-- 250 -->
      <g transform="translate(335.515938 306.14445)scale(0.14 -0.14)">
       <use xlink:href="#TimesNewRomanPSMT-32"/>
       <use xlink:href="#TimesNewRomanPSMT-35" x="50"/>
       <use xlink:href="#TimesNewRomanPSMT-30" x="100"/>
      </g>
     </g>
    </g>
    <g id="xtick_7">
     <g id="line2d_7">
      <g>
       <use xlink:href="#m6edc277e7d" x="405.535938" y="292.9232" style="stroke: #000000; stroke-width: 0.8"/>
      </g>
     </g>
     <g id="text_7">
      <!-- 300 -->
      <g transform="translate(395.035938 306.14445)scale(0.14 -0.14)">
       <defs>
        <path id="TimesNewRomanPSMT-33" d="M 325 3431 
Q 506 3859 782 4092 
Q 1059 4325 1472 4325 
Q 1981 4325 2253 3994 
Q 2459 3747 2459 3466 
Q 2459 3003 1878 2509 
Q 2269 2356 2469 2072 
Q 2669 1788 2669 1403 
Q 2669 853 2319 450 
Q 1863 -75 997 -75 
Q 569 -75 414 31 
Q 259 138 259 259 
Q 259 350 332 419 
Q 406 488 509 488 
Q 588 488 669 463 
Q 722 447 909 348 
Q 1097 250 1169 231 
Q 1284 197 1416 197 
Q 1734 197 1970 444 
Q 2206 691 2206 1028 
Q 2206 1275 2097 1509 
Q 2016 1684 1919 1775 
Q 1784 1900 1550 2001 
Q 1316 2103 1072 2103 
L 972 2103 
L 972 2197 
Q 1219 2228 1467 2375 
Q 1716 2522 1828 2728 
Q 1941 2934 1941 3181 
Q 1941 3503 1739 3701 
Q 1538 3900 1238 3900 
Q 753 3900 428 3381 
L 325 3431 
z
" transform="scale(0.015625)"/>
       </defs>
       <use xlink:href="#TimesNewRomanPSMT-33"/>
       <use xlink:href="#TimesNewRomanPSMT-30" x="50"/>
       <use xlink:href="#TimesNewRomanPSMT-30" x="100"/>
      </g>
     </g>
    </g>
    <g id="text_8">
     <!-- Time (s) -->
     <g transform="translate(203.312656 322.860387)scale(0.14 -0.14)">
      <defs>
       <path id="TimesNewRomanPSMT-54" d="M 3703 4238 
L 3750 3244 
L 3631 3244 
Q 3597 3506 3538 3619 
Q 3441 3800 3280 3886 
Q 3119 3972 2856 3972 
L 2259 3972 
L 2259 734 
Q 2259 344 2344 247 
Q 2463 116 2709 116 
L 2856 116 
L 2856 0 
L 1059 0 
L 1059 116 
L 1209 116 
Q 1478 116 1591 278 
Q 1659 378 1659 734 
L 1659 3972 
L 1150 3972 
Q 853 3972 728 3928 
Q 566 3869 450 3700 
Q 334 3531 313 3244 
L 194 3244 
L 244 4238 
L 3703 4238 
z
" transform="scale(0.015625)"/>
       <path id="TimesNewRomanPSMT-69" d="M 928 4444 
Q 1059 4444 1151 4351 
Q 1244 4259 1244 4128 
Q 1244 3997 1151 3903 
Q 1059 3809 928 3809 
Q 797 3809 703 3903 
Q 609 3997 609 4128 
Q 609 4259 701 4351 
Q 794 4444 928 4444 
z
M 1188 2947 
L 1188 647 
Q 1188 378 1227 289 
Q 1266 200 1342 156 
Q 1419 113 1622 113 
L 1622 0 
L 231 0 
L 231 113 
Q 441 113 512 153 
Q 584 194 626 287 
Q 669 381 669 647 
L 669 1750 
Q 669 2216 641 2353 
Q 619 2453 572 2492 
Q 525 2531 444 2531 
Q 356 2531 231 2484 
L 188 2597 
L 1050 2947 
L 1188 2947 
z
" transform="scale(0.015625)"/>
       <path id="TimesNewRomanPSMT-6d" d="M 1050 2338 
Q 1363 2650 1419 2697 
Q 1559 2816 1721 2881 
Q 1884 2947 2044 2947 
Q 2313 2947 2506 2790 
Q 2700 2634 2766 2338 
Q 3088 2713 3309 2830 
Q 3531 2947 3766 2947 
Q 3994 2947 4170 2830 
Q 4347 2713 4450 2447 
Q 4519 2266 4519 1878 
L 4519 647 
Q 4519 378 4559 278 
Q 4591 209 4675 161 
Q 4759 113 4950 113 
L 4950 0 
L 3538 0 
L 3538 113 
L 3597 113 
Q 3781 113 3884 184 
Q 3956 234 3988 344 
Q 4000 397 4000 647 
L 4000 1878 
Q 4000 2228 3916 2372 
Q 3794 2572 3525 2572 
Q 3359 2572 3192 2489 
Q 3025 2406 2788 2181 
L 2781 2147 
L 2788 2013 
L 2788 647 
Q 2788 353 2820 281 
Q 2853 209 2943 161 
Q 3034 113 3253 113 
L 3253 0 
L 1806 0 
L 1806 113 
Q 2044 113 2133 169 
Q 2222 225 2256 338 
Q 2272 391 2272 647 
L 2272 1878 
Q 2272 2228 2169 2381 
Q 2031 2581 1784 2581 
Q 1616 2581 1450 2491 
Q 1191 2353 1050 2181 
L 1050 647 
Q 1050 366 1089 281 
Q 1128 197 1204 155 
Q 1281 113 1516 113 
L 1516 0 
L 100 0 
L 100 113 
Q 297 113 375 155 
Q 453 197 493 289 
Q 534 381 534 647 
L 534 1741 
Q 534 2213 506 2350 
Q 484 2453 437 2492 
Q 391 2531 309 2531 
Q 222 2531 100 2484 
L 53 2597 
L 916 2947 
L 1050 2947 
L 1050 2338 
z
" transform="scale(0.015625)"/>
       <path id="TimesNewRomanPSMT-65" d="M 681 1784 
Q 678 1147 991 784 
Q 1303 422 1725 422 
Q 2006 422 2214 576 
Q 2422 731 2563 1106 
L 2659 1044 
Q 2594 616 2278 264 
Q 1963 -88 1488 -88 
Q 972 -88 605 314 
Q 238 716 238 1394 
Q 238 2128 614 2539 
Q 991 2950 1559 2950 
Q 2041 2950 2350 2633 
Q 2659 2316 2659 1784 
L 681 1784 
z
M 681 1966 
L 2006 1966 
Q 1991 2241 1941 2353 
Q 1863 2528 1708 2628 
Q 1553 2728 1384 2728 
Q 1125 2728 920 2526 
Q 716 2325 681 1966 
z
" transform="scale(0.015625)"/>
       <path id="TimesNewRomanPSMT-20" transform="scale(0.015625)"/>
       <path id="TimesNewRomanPSMT-28" d="M 1988 -1253 
L 1988 -1369 
Q 1516 -1131 1200 -813 
Q 750 -359 506 256 
Q 263 872 263 1534 
Q 263 2503 741 3301 
Q 1219 4100 1988 4444 
L 1988 4313 
Q 1603 4100 1356 3731 
Q 1109 3363 987 2797 
Q 866 2231 866 1616 
Q 866 947 969 400 
Q 1050 -31 1165 -292 
Q 1281 -553 1476 -793 
Q 1672 -1034 1988 -1253 
z
" transform="scale(0.015625)"/>
       <path id="TimesNewRomanPSMT-73" d="M 2050 2947 
L 2050 1972 
L 1947 1972 
Q 1828 2431 1642 2597 
Q 1456 2763 1169 2763 
Q 950 2763 815 2647 
Q 681 2531 681 2391 
Q 681 2216 781 2091 
Q 878 1963 1175 1819 
L 1631 1597 
Q 2266 1288 2266 781 
Q 2266 391 1970 151 
Q 1675 -88 1309 -88 
Q 1047 -88 709 6 
Q 606 38 541 38 
Q 469 38 428 -44 
L 325 -44 
L 325 978 
L 428 978 
Q 516 541 762 319 
Q 1009 97 1316 97 
Q 1531 97 1667 223 
Q 1803 350 1803 528 
Q 1803 744 1651 891 
Q 1500 1038 1047 1263 
Q 594 1488 453 1669 
Q 313 1847 313 2119 
Q 313 2472 555 2709 
Q 797 2947 1181 2947 
Q 1350 2947 1591 2875 
Q 1750 2828 1803 2828 
Q 1853 2828 1881 2850 
Q 1909 2872 1947 2947 
L 2050 2947 
z
" transform="scale(0.015625)"/>
       <path id="TimesNewRomanPSMT-29" d="M 144 4313 
L 144 4444 
Q 619 4209 934 3891 
Q 1381 3434 1625 2820 
Q 1869 2206 1869 1541 
Q 1869 572 1392 -226 
Q 916 -1025 144 -1369 
L 144 -1253 
Q 528 -1038 776 -670 
Q 1025 -303 1145 264 
Q 1266 831 1266 1447 
Q 1266 2113 1163 2663 
Q 1084 3094 967 3353 
Q 850 3613 656 3853 
Q 463 4094 144 4313 
z
" transform="scale(0.015625)"/>
      </defs>
      <use xlink:href="#TimesNewRomanPSMT-54"/>
      <use xlink:href="#TimesNewRomanPSMT-69" x="57.583984"/>
      <use xlink:href="#TimesNewRomanPSMT-6d" x="85.367188"/>
      <use xlink:href="#TimesNewRomanPSMT-65" x="163.150391"/>
      <use xlink:href="#TimesNewRomanPSMT-20" x="207.535156"/>
      <use xlink:href="#TimesNewRomanPSMT-28" x="232.535156"/>
      <use xlink:href="#TimesNewRomanPSMT-73" x="265.835938"/>
      <use xlink:href="#TimesNewRomanPSMT-29" x="304.751953"/>
     </g>
    </g>
   </g>
   <g id="matplotlib.axis_2">
    <g id="ytick_1">
     <g id="line2d_8">
      <defs>
       <path id="me5d452da1f" d="M 0 0 
L 3.5 0 
" style="stroke: #000000; stroke-width: 0.8"/>
      </defs>
      <g>
       <use xlink:href="#me5d452da1f" x="48.415938" y="292.9232" style="stroke: #000000; stroke-width: 0.8"/>
      </g>
     </g>
     <g id="text_9">
      <!-- 0 -->
      <g transform="translate(37.915938 297.783825)scale(0.14 -0.14)">
       <use xlink:href="#TimesNewRomanPSMT-30"/>
      </g>
     </g>
    </g>
    <g id="ytick_2">
     <g id="line2d_9">
      <g>
       <use xlink:href="#me5d452da1f" x="48.415938" y="259.6592" style="stroke: #000000; stroke-width: 0.8"/>
      </g>
     </g>
     <g id="text_10">
      <!-- 50 -->
      <g transform="translate(30.915938 264.519825)scale(0.14 -0.14)">
       <use xlink:href="#TimesNewRomanPSMT-35"/>
       <use xlink:href="#TimesNewRomanPSMT-30" x="50"/>
      </g>
     </g>
    </g>
    <g id="ytick_3">
     <g id="line2d_10">
      <g>
       <use xlink:href="#me5d452da1f" x="48.415938" y="226.3952" style="stroke: #000000; stroke-width: 0.8"/>
      </g>
     </g>
     <g id="text_11">
      <!-- 100 -->
      <g transform="translate(23.915938 231.255825)scale(0.14 -0.14)">
       <use xlink:href="#TimesNewRomanPSMT-31"/>
       <use xlink:href="#TimesNewRomanPSMT-30" x="50"/>
       <use xlink:href="#TimesNewRomanPSMT-30" x="100"/>
      </g>
     </g>
    </g>
    <g id="ytick_4">
     <g id="line2d_11">
      <g>
       <use xlink:href="#me5d452da1f" x="48.415938" y="193.1312" style="stroke: #000000; stroke-width: 0.8"/>
      </g>
     </g>
     <g id="text_12">
      <!-- 150 -->
      <g transform="translate(23.915938 197.991825)scale(0.14 -0.14)">
       <use xlink:href="#TimesNewRomanPSMT-31"/>
       <use xlink:href="#TimesNewRomanPSMT-35" x="50"/>
       <use xlink:href="#TimesNewRomanPSMT-30" x="100"/>
      </g>
     </g>
    </g>
    <g id="ytick_5">
     <g id="line2d_12">
      <g>
       <use xlink:href="#me5d452da1f" x="48.415938" y="159.8672" style="stroke: #000000; stroke-width: 0.8"/>
      </g>
     </g>
     <g id="text_13">
      <!-- 200 -->
      <g transform="translate(23.915938 164.727825)scale(0.14 -0.14)">
       <use xlink:href="#TimesNewRomanPSMT-32"/>
       <use xlink:href="#TimesNewRomanPSMT-30" x="50"/>
       <use xlink:href="#TimesNewRomanPSMT-30" x="100"/>
      </g>
     </g>
    </g>
    <g id="ytick_6">
     <g id="line2d_13">
      <g>
       <use xlink:href="#me5d452da1f" x="48.415938" y="126.6032" style="stroke: #000000; stroke-width: 0.8"/>
      </g>
     </g>
     <g id="text_14">
      <!-- 250 -->
      <g transform="translate(23.915938 131.463825)scale(0.14 -0.14)">
       <use xlink:href="#TimesNewRomanPSMT-32"/>
       <use xlink:href="#TimesNewRomanPSMT-35" x="50"/>
       <use xlink:href="#TimesNewRomanPSMT-30" x="100"/>
      </g>
     </g>
    </g>
    <g id="ytick_7">
     <g id="line2d_14">
      <g>
       <use xlink:href="#me5d452da1f" x="48.415938" y="93.3392" style="stroke: #000000; stroke-width: 0.8"/>
      </g>
     </g>
     <g id="text_15">
      <!-- 300 -->
      <g transform="translate(23.915938 98.199825)scale(0.14 -0.14)">
       <use xlink:href="#TimesNewRomanPSMT-33"/>
       <use xlink:href="#TimesNewRomanPSMT-30" x="50"/>
       <use xlink:href="#TimesNewRomanPSMT-30" x="100"/>
      </g>
     </g>
    </g>
    <g id="ytick_8">
     <g id="line2d_15">
      <g>
       <use xlink:href="#me5d452da1f" x="48.415938" y="60.0752" style="stroke: #000000; stroke-width: 0.8"/>
      </g>
     </g>
     <g id="text_16">
      <!-- 350 -->
      <g transform="translate(23.915938 64.935825)scale(0.14 -0.14)">
       <use xlink:href="#TimesNewRomanPSMT-33"/>
       <use xlink:href="#TimesNewRomanPSMT-35" x="50"/>
       <use xlink:href="#TimesNewRomanPSMT-30" x="100"/>
      </g>
     </g>
    </g>
    <g id="ytick_9">
     <g id="line2d_16">
      <g>
       <use xlink:href="#me5d452da1f" x="48.415938" y="26.8112" style="stroke: #000000; stroke-width: 0.8"/>
      </g>
     </g>
     <g id="text_17">
      <!-- 400 -->
      <g transform="translate(23.915938 31.671825)scale(0.14 -0.14)">
       <defs>
        <path id="TimesNewRomanPSMT-34" d="M 2978 1563 
L 2978 1119 
L 2409 1119 
L 2409 0 
L 1894 0 
L 1894 1119 
L 100 1119 
L 100 1519 
L 2066 4325 
L 2409 4325 
L 2409 1563 
L 2978 1563 
z
M 1894 1563 
L 1894 3666 
L 406 1563 
L 1894 1563 
z
" transform="scale(0.015625)"/>
       </defs>
       <use xlink:href="#TimesNewRomanPSMT-34"/>
       <use xlink:href="#TimesNewRomanPSMT-30" x="50"/>
       <use xlink:href="#TimesNewRomanPSMT-30" x="100"/>
      </g>
     </g>
    </g>
    <g id="text_18">
     <!-- Concentration (ppm) -->
     <g transform="translate(16.92125 218.379544)rotate(-90)scale(0.14 -0.14)">
      <defs>
       <path id="TimesNewRomanPSMT-43" d="M 3853 4334 
L 3950 2894 
L 3853 2894 
Q 3659 3541 3300 3825 
Q 2941 4109 2438 4109 
Q 2016 4109 1675 3895 
Q 1334 3681 1139 3212 
Q 944 2744 944 2047 
Q 944 1472 1128 1050 
Q 1313 628 1683 403 
Q 2053 178 2528 178 
Q 2941 178 3256 354 
Q 3572 531 3950 1056 
L 4047 994 
Q 3728 428 3303 165 
Q 2878 -97 2294 -97 
Q 1241 -97 663 684 
Q 231 1266 231 2053 
Q 231 2688 515 3219 
Q 800 3750 1298 4042 
Q 1797 4334 2388 4334 
Q 2847 4334 3294 4109 
Q 3425 4041 3481 4041 
Q 3566 4041 3628 4100 
Q 3709 4184 3744 4334 
L 3853 4334 
z
" transform="scale(0.015625)"/>
       <path id="TimesNewRomanPSMT-6f" d="M 1600 2947 
Q 2250 2947 2644 2453 
Q 2978 2031 2978 1484 
Q 2978 1100 2793 706 
Q 2609 313 2286 112 
Q 1963 -88 1566 -88 
Q 919 -88 538 428 
Q 216 863 216 1403 
Q 216 1797 411 2186 
Q 606 2575 925 2761 
Q 1244 2947 1600 2947 
z
M 1503 2744 
Q 1338 2744 1170 2645 
Q 1003 2547 900 2300 
Q 797 2053 797 1666 
Q 797 1041 1045 587 
Q 1294 134 1700 134 
Q 2003 134 2200 384 
Q 2397 634 2397 1244 
Q 2397 2006 2069 2444 
Q 1847 2744 1503 2744 
z
" transform="scale(0.015625)"/>
       <path id="TimesNewRomanPSMT-6e" d="M 1034 2341 
Q 1538 2947 1994 2947 
Q 2228 2947 2397 2830 
Q 2566 2713 2666 2444 
Q 2734 2256 2734 1869 
L 2734 647 
Q 2734 375 2778 278 
Q 2813 200 2889 156 
Q 2966 113 3172 113 
L 3172 0 
L 1756 0 
L 1756 113 
L 1816 113 
Q 2016 113 2095 173 
Q 2175 234 2206 353 
Q 2219 400 2219 647 
L 2219 1819 
Q 2219 2209 2117 2386 
Q 2016 2563 1775 2563 
Q 1403 2563 1034 2156 
L 1034 647 
Q 1034 356 1069 288 
Q 1113 197 1189 155 
Q 1266 113 1500 113 
L 1500 0 
L 84 0 
L 84 113 
L 147 113 
Q 366 113 442 223 
Q 519 334 519 647 
L 519 1709 
Q 519 2225 495 2337 
Q 472 2450 423 2490 
Q 375 2531 294 2531 
Q 206 2531 84 2484 
L 38 2597 
L 900 2947 
L 1034 2947 
L 1034 2341 
z
" transform="scale(0.015625)"/>
       <path id="TimesNewRomanPSMT-63" d="M 2631 1088 
Q 2516 522 2178 217 
Q 1841 -88 1431 -88 
Q 944 -88 581 321 
Q 219 731 219 1428 
Q 219 2103 620 2525 
Q 1022 2947 1584 2947 
Q 2006 2947 2278 2723 
Q 2550 2500 2550 2259 
Q 2550 2141 2473 2067 
Q 2397 1994 2259 1994 
Q 2075 1994 1981 2113 
Q 1928 2178 1911 2362 
Q 1894 2547 1784 2644 
Q 1675 2738 1481 2738 
Q 1169 2738 978 2506 
Q 725 2200 725 1697 
Q 725 1184 976 792 
Q 1228 400 1656 400 
Q 1963 400 2206 609 
Q 2378 753 2541 1131 
L 2631 1088 
z
" transform="scale(0.015625)"/>
       <path id="TimesNewRomanPSMT-74" d="M 1031 3803 
L 1031 2863 
L 1700 2863 
L 1700 2644 
L 1031 2644 
L 1031 788 
Q 1031 509 1111 412 
Q 1191 316 1316 316 
Q 1419 316 1516 380 
Q 1613 444 1666 569 
L 1788 569 
Q 1678 263 1478 108 
Q 1278 -47 1066 -47 
Q 922 -47 784 33 
Q 647 113 581 261 
Q 516 409 516 719 
L 516 2644 
L 63 2644 
L 63 2747 
Q 234 2816 414 2980 
Q 594 3144 734 3369 
Q 806 3488 934 3803 
L 1031 3803 
z
" transform="scale(0.015625)"/>
       <path id="TimesNewRomanPSMT-72" d="M 1038 2947 
L 1038 2303 
Q 1397 2947 1775 2947 
Q 1947 2947 2059 2842 
Q 2172 2738 2172 2600 
Q 2172 2478 2090 2393 
Q 2009 2309 1897 2309 
Q 1788 2309 1652 2417 
Q 1516 2525 1450 2525 
Q 1394 2525 1328 2463 
Q 1188 2334 1038 2041 
L 1038 669 
Q 1038 431 1097 309 
Q 1138 225 1241 169 
Q 1344 113 1538 113 
L 1538 0 
L 72 0 
L 72 113 
Q 291 113 397 181 
Q 475 231 506 341 
Q 522 394 522 644 
L 522 1753 
Q 522 2253 501 2348 
Q 481 2444 426 2487 
Q 372 2531 291 2531 
Q 194 2531 72 2484 
L 41 2597 
L 906 2947 
L 1038 2947 
z
" transform="scale(0.015625)"/>
       <path id="TimesNewRomanPSMT-61" d="M 1822 413 
Q 1381 72 1269 19 
Q 1100 -59 909 -59 
Q 613 -59 420 144 
Q 228 347 228 678 
Q 228 888 322 1041 
Q 450 1253 767 1440 
Q 1084 1628 1822 1897 
L 1822 2009 
Q 1822 2438 1686 2597 
Q 1550 2756 1291 2756 
Q 1094 2756 978 2650 
Q 859 2544 859 2406 
L 866 2225 
Q 866 2081 792 2003 
Q 719 1925 600 1925 
Q 484 1925 411 2006 
Q 338 2088 338 2228 
Q 338 2497 613 2722 
Q 888 2947 1384 2947 
Q 1766 2947 2009 2819 
Q 2194 2722 2281 2516 
Q 2338 2381 2338 1966 
L 2338 994 
Q 2338 584 2353 492 
Q 2369 400 2405 369 
Q 2441 338 2488 338 
Q 2538 338 2575 359 
Q 2641 400 2828 588 
L 2828 413 
Q 2478 -56 2159 -56 
Q 2006 -56 1915 50 
Q 1825 156 1822 413 
z
M 1822 616 
L 1822 1706 
Q 1350 1519 1213 1441 
Q 966 1303 859 1153 
Q 753 1003 753 825 
Q 753 600 887 451 
Q 1022 303 1197 303 
Q 1434 303 1822 616 
z
" transform="scale(0.015625)"/>
       <path id="TimesNewRomanPSMT-70" d="M -6 2578 
L 875 2934 
L 994 2934 
L 994 2266 
Q 1216 2644 1439 2795 
Q 1663 2947 1909 2947 
Q 2341 2947 2628 2609 
Q 2981 2197 2981 1534 
Q 2981 794 2556 309 
Q 2206 -88 1675 -88 
Q 1444 -88 1275 -22 
Q 1150 25 994 166 
L 994 -706 
Q 994 -1000 1030 -1079 
Q 1066 -1159 1155 -1206 
Q 1244 -1253 1478 -1253 
L 1478 -1369 
L -22 -1369 
L -22 -1253 
L 56 -1253 
Q 228 -1256 350 -1188 
Q 409 -1153 442 -1076 
Q 475 -1000 475 -688 
L 475 2019 
Q 475 2297 450 2372 
Q 425 2447 370 2484 
Q 316 2522 222 2522 
Q 147 2522 31 2478 
L -6 2578 
z
M 994 2081 
L 994 1013 
Q 994 666 1022 556 
Q 1066 375 1236 237 
Q 1406 100 1666 100 
Q 1978 100 2172 344 
Q 2425 663 2425 1241 
Q 2425 1897 2138 2250 
Q 1938 2494 1663 2494 
Q 1513 2494 1366 2419 
Q 1253 2363 994 2081 
z
" transform="scale(0.015625)"/>
      </defs>
      <use xlink:href="#TimesNewRomanPSMT-43"/>
      <use xlink:href="#TimesNewRomanPSMT-6f" x="66.699219"/>
      <use xlink:href="#TimesNewRomanPSMT-6e" x="116.699219"/>
      <use xlink:href="#TimesNewRomanPSMT-63" x="166.699219"/>
      <use xlink:href="#TimesNewRomanPSMT-65" x="211.083984"/>
      <use xlink:href="#TimesNewRomanPSMT-6e" x="255.46875"/>
      <use xlink:href="#TimesNewRomanPSMT-74" x="305.46875"/>
      <use xlink:href="#TimesNewRomanPSMT-72" x="333.251953"/>
      <use xlink:href="#TimesNewRomanPSMT-61" x="366.552734"/>
      <use xlink:href="#TimesNewRomanPSMT-74" x="410.9375"/>
      <use xlink:href="#TimesNewRomanPSMT-69" x="438.720703"/>
      <use xlink:href="#TimesNewRomanPSMT-6f" x="466.503906"/>
      <use xlink:href="#TimesNewRomanPSMT-6e" x="516.503906"/>
      <use xlink:href="#TimesNewRomanPSMT-20" x="566.503906"/>
      <use xlink:href="#TimesNewRomanPSMT-28" x="591.503906"/>
      <use xlink:href="#TimesNewRomanPSMT-70" x="624.804688"/>
      <use xlink:href="#TimesNewRomanPSMT-70" x="674.804688"/>
      <use xlink:href="#TimesNewRomanPSMT-6d" x="724.804688"/>
      <use xlink:href="#TimesNewRomanPSMT-29" x="802.587891"/>
     </g>
    </g>
   </g>
   <g id="line2d_17">
    <path d="M 48.415938 278.95232 
L 49.606338 278.95232 
L 50.796738 278.28704 
L 51.987138 279.6176 
L 53.177538 244.35776 
L 54.367938 229.7216 
L 55.558338 218.41184 
L 57.939138 203.1104 
L 59.129538 201.77984 
L 60.319938 207.76736 
L 61.510338 215.08544 
L 62.700738 217.74656 
L 63.891138 219.7424 
L 65.081538 219.07712 
L 66.271938 214.42016 
L 67.462338 210.42848 
L 68.652738 211.75904 
L 69.843138 221.07296 
L 71.033538 235.70912 
L 72.223938 240.36608 
L 73.414338 169.8464 
L 74.604738 61.40576 
L 75.795138 84.69056 
L 78.175938 194.46176 
L 79.366338 218.41184 
L 81.747138 215.75072 
L 82.937538 213.75488 
L 84.127938 205.10624 
L 85.318338 198.45344 
L 86.508738 197.12288 
L 87.699138 186.4784 
L 88.889538 197.12288 
L 90.079938 239.7008 
L 91.270338 255.00224 
L 92.460738 253.0064 
L 93.651138 264.98144 
L 94.841538 270.96896 
L 96.031938 271.63424 
L 97.222338 249.68 
L 98.412738 248.34944 
L 99.603138 256.3328 
L 100.793538 249.68 
L 101.983938 260.98976 
L 103.174338 267.64256 
L 104.364738 221.07296 
L 105.555138 202.44512 
L 106.745538 242.36192 
L 107.935938 262.32032 
L 109.126338 262.9856 
L 110.316738 249.01472 
L 111.507138 221.07296 
L 112.697538 175.83392 
L 113.887938 157.87136 
L 115.078338 159.20192 
L 116.268738 179.8256 
L 117.459138 205.10624 
L 118.649538 204.44096 
L 119.839938 199.11872 
L 121.030338 194.46176 
L 123.411138 190.47008 
L 124.601538 191.13536 
L 125.791938 195.12704 
L 126.982338 201.11456 
L 128.172738 159.8672 
L 129.363138 78.70304 
L 130.553538 84.69056 
L 131.743938 76.04192 
L 132.934338 40.1168 
L 134.124738 48.10016 
L 135.315138 90.0128 
L 136.505538 110.63648 
L 137.695938 114.62816 
L 138.886338 115.29344 
L 141.267138 211.09376 
L 142.457538 236.3744 
L 143.647938 248.34944 
L 146.028738 266.312 
L 147.219138 272.9648 
L 149.599938 272.9648 
L 151.980738 243.0272 
L 154.361538 244.35776 
L 155.551938 235.70912 
L 156.742338 239.03552 
L 157.932738 241.03136 
L 159.123138 250.34528 
L 160.313538 252.34112 
L 161.503938 252.34112 
L 162.694338 245.02304 
L 163.884738 245.02304 
L 165.075138 231.71744 
L 166.265538 228.39104 
L 167.455938 228.39104 
L 168.646338 230.38688 
L 169.836738 265.64672 
L 171.027138 261.65504 
L 172.217538 268.97312 
L 173.407938 260.98976 
L 174.598338 261.65504 
L 175.788738 247.68416 
L 176.979138 218.41184 
L 178.169538 219.07712 
L 179.359938 256.99808 
L 180.550338 260.32448 
L 181.740738 271.63424 
L 182.931138 276.95648 
L 184.121538 278.95232 
L 185.311938 278.95232 
L 186.502338 279.6176 
L 187.692738 279.6176 
L 190.073538 278.28704 
L 191.263938 276.2912 
L 192.454338 276.2912 
L 193.644738 272.29952 
L 194.835138 262.32032 
L 196.025538 255.66752 
L 197.215938 257.66336 
L 199.596738 265.64672 
L 200.787138 268.30784 
L 201.977538 269.6384 
L 203.167938 255.66752 
L 204.358338 224.39936 
L 205.548738 209.7632 
L 206.739138 215.08544 
L 207.929538 229.05632 
L 209.119938 233.048 
L 210.310338 226.3952 
L 211.500738 86.6864 
L 212.691138 42.77792 
L 213.881538 57.41408 
L 216.262338 77.37248 
L 217.452738 85.35584 
L 218.643138 163.1936 
L 219.833538 203.1104 
L 221.023938 213.0896 
L 222.214338 229.7216 
L 223.404738 224.39936 
L 224.595138 235.70912 
L 225.785538 204.44096 
L 226.975938 97.33088 
L 228.166338 66.728 
L 230.547138 48.76544 
L 231.737538 43.4432 
L 232.927938 40.1168 
L 234.118338 32.13344 
L 236.499138 28.14176 
L 237.689538 33.464 
L 240.070338 50.096 
L 241.260738 71.38496 
L 242.451138 90.67808 
L 243.641538 101.32256 
L 244.831938 99.32672 
L 246.022338 120.61568 
L 247.212738 120.61568 
L 248.403138 79.36832 
L 249.593538 92.67392 
L 250.783938 81.36416 
L 251.974338 117.28928 
L 253.164738 234.37856 
L 254.355138 262.9856 
L 255.545538 268.97312 
L 256.735938 269.6384 
L 257.926338 273.63008 
L 259.116737 274.96064 
L 260.307138 274.29536 
L 261.497538 274.29536 
L 262.687938 274.96064 
L 265.068737 274.96064 
L 266.259138 270.96896 
L 267.449538 272.9648 
L 268.639938 275.62592 
L 269.830338 276.95648 
L 271.020737 276.2912 
L 273.401538 272.29952 
L 274.591938 273.63008 
L 276.972737 272.29952 
L 278.163138 273.63008 
L 279.353538 274.29536 
L 280.543938 274.29536 
L 281.734338 276.2912 
L 282.924738 274.96064 
L 284.115138 268.30784 
L 285.305538 235.04384 
L 286.495938 217.74656 
L 287.686338 219.07712 
L 288.876738 225.72992 
L 290.067138 242.36192 
L 291.257538 264.98144 
L 292.447938 272.9648 
L 293.638338 276.2912 
L 294.828738 277.62176 
L 296.019138 276.95648 
L 297.209538 276.95648 
L 298.399938 259.6592 
L 299.590338 249.68 
L 300.780738 235.04384 
L 301.971138 223.0688 
L 303.161538 219.7424 
L 305.542338 223.73408 
L 307.923138 135.91712 
L 309.113538 127.93376 
L 310.303938 115.29344 
L 311.494338 69.38912 
L 313.875138 84.02528 
L 315.065538 99.32672 
L 316.255938 111.96704 
L 317.446338 108.64064 
L 318.636738 91.34336 
L 319.827138 133.92128 
L 321.017538 191.13536 
L 322.207938 217.08128 
L 323.398338 231.05216 
L 324.588738 250.34528 
L 325.779138 264.98144 
L 326.969538 270.96896 
L 328.159938 273.63008 
L 329.350338 275.62592 
L 330.540738 276.95648 
L 332.921537 276.95648 
L 334.111938 278.28704 
L 335.302338 278.95232 
L 336.492738 278.95232 
L 337.683138 278.28704 
L 338.873537 272.9648 
L 340.063938 264.98144 
L 342.444738 255.66752 
L 343.635138 253.67168 
L 344.825537 252.34112 
L 346.015938 273.63008 
L 348.396738 274.96064 
L 349.587138 274.96064 
L 350.777537 270.96896 
L 351.967938 258.32864 
L 353.158338 270.30368 
L 354.348738 254.33696 
L 355.539138 266.97728 
L 356.729537 270.30368 
L 357.919938 270.96896 
L 359.110338 266.312 
L 360.300738 264.31616 
L 361.491138 230.38688 
L 362.681537 234.37856 
L 363.871938 251.01056 
L 365.062338 261.65504 
L 367.443138 272.29952 
L 368.633538 275.62592 
L 369.823938 274.96064 
L 371.014338 276.95648 
L 372.204738 276.2912 
L 373.395138 278.28704 
L 374.585538 277.62176 
L 378.156738 277.62176 
L 379.347138 276.95648 
L 380.537538 274.96064 
L 381.727938 275.62592 
L 382.918338 274.29536 
L 384.108738 273.63008 
L 385.299138 270.30368 
L 387.679938 267.64256 
L 388.870338 264.31616 
L 390.060738 261.65504 
L 391.251138 262.9856 
L 392.441538 262.32032 
L 393.631938 260.98976 
L 396.012738 260.98976 
L 397.203138 264.31616 
L 398.393538 264.98144 
L 399.583938 266.97728 
L 400.774338 269.6384 
L 401.964738 269.6384 
L 403.155138 270.96896 
L 404.345538 271.63424 
L 404.345538 271.63424 
" clip-path="url(#p3f4674b181)" style="fill: none; stroke: #f7903d; stroke-width: 1.3; stroke-linecap: square"/>
   </g>
   <g id="line2d_18">
    <path d="M 48.415938 279.6176 
L 49.606338 279.6176 
L 50.796738 278.95232 
L 53.177538 278.95232 
L 54.367938 278.28704 
L 55.558338 276.95648 
L 57.939138 275.62592 
L 60.319938 275.62592 
L 61.510338 274.96064 
L 62.700738 275.62592 
L 63.891138 275.62592 
L 65.081538 274.96064 
L 66.271938 276.2912 
L 68.652738 276.2912 
L 69.843138 276.95648 
L 71.033538 276.95648 
L 72.223938 277.62176 
L 73.414338 277.62176 
L 74.604738 276.95648 
L 75.795138 276.95648 
L 76.985538 277.62176 
L 78.175938 276.95648 
L 81.747138 276.95648 
L 84.127938 278.28704 
L 85.318338 278.28704 
L 87.699138 279.6176 
L 88.889538 278.95232 
L 90.079938 279.6176 
L 91.270338 279.6176 
L 92.460738 278.28704 
L 93.651138 278.95232 
L 94.841538 278.95232 
L 96.031938 278.28704 
L 98.412738 278.28704 
L 99.603138 277.62176 
L 101.983938 277.62176 
L 103.174338 276.95648 
L 104.364738 276.95648 
L 106.745538 275.62592 
L 107.935938 276.2912 
L 110.316738 276.2912 
L 111.507138 276.95648 
L 113.887938 275.62592 
L 115.078338 276.2912 
L 116.268738 276.2912 
L 117.459138 275.62592 
L 118.649538 274.29536 
L 119.839938 273.63008 
L 121.030338 272.29952 
L 123.411138 273.63008 
L 124.601538 272.9648 
L 125.791938 272.9648 
L 128.172738 271.63424 
L 129.363138 272.29952 
L 130.553538 272.29952 
L 131.743938 270.96896 
L 132.934338 272.29952 
L 134.124738 272.29952 
L 135.315138 271.63424 
L 137.695938 271.63424 
L 140.076738 272.9648 
L 142.457538 272.9648 
L 144.838338 274.29536 
L 146.028738 276.2912 
L 147.219138 279.6176 
L 148.409538 281.61344 
L 149.599938 281.61344 
L 150.790338 282.27872 
L 153.171138 282.27872 
L 154.361538 281.61344 
L 155.551938 279.6176 
L 156.742338 278.28704 
L 157.932738 275.62592 
L 159.123138 263.65088 
L 160.313538 266.312 
L 161.503938 265.64672 
L 162.694338 254.33696 
L 163.884738 253.0064 
L 165.075138 261.65504 
L 166.265538 264.31616 
L 167.455938 266.312 
L 168.646338 266.312 
L 169.836738 267.64256 
L 172.217538 268.97312 
L 173.407938 268.30784 
L 174.598338 268.30784 
L 175.788738 268.97312 
L 176.979138 267.64256 
L 178.169538 267.64256 
L 179.359938 266.312 
L 180.550338 264.31616 
L 181.740738 263.65088 
L 182.931138 263.65088 
L 184.121538 262.9856 
L 185.311938 264.31616 
L 186.502338 264.31616 
L 187.692738 265.64672 
L 188.883138 267.64256 
L 190.073538 267.64256 
L 191.263938 268.30784 
L 192.454338 270.30368 
L 193.644738 273.63008 
L 194.835138 273.63008 
L 197.215938 276.2912 
L 198.406338 276.95648 
L 199.596738 278.28704 
L 200.787138 278.28704 
L 201.977538 277.62176 
L 203.167938 278.28704 
L 205.548738 276.95648 
L 206.739138 275.62592 
L 207.929538 275.62592 
L 209.119938 274.29536 
L 210.310338 273.63008 
L 212.691138 273.63008 
L 213.881538 272.9648 
L 215.071938 273.63008 
L 216.262338 272.9648 
L 218.643138 274.29536 
L 219.833538 275.62592 
L 222.214338 272.9648 
L 223.404738 273.63008 
L 224.595138 273.63008 
L 225.785538 274.29536 
L 228.166338 272.9648 
L 229.356738 273.63008 
L 231.737538 272.29952 
L 234.118338 273.63008 
L 235.308738 273.63008 
L 236.499138 274.29536 
L 238.879938 274.29536 
L 240.070338 274.96064 
L 242.451138 274.96064 
L 243.641538 276.2912 
L 244.831938 276.2912 
L 246.022338 276.95648 
L 247.212738 278.28704 
L 248.403138 278.28704 
L 250.783938 279.6176 
L 251.974338 279.6176 
L 253.164738 278.95232 
L 254.355138 277.62176 
L 255.545538 276.95648 
L 256.735938 275.62592 
L 257.926338 274.96064 
L 259.116737 274.96064 
L 260.307138 274.29536 
L 261.497538 274.29536 
L 262.687938 274.96064 
L 263.878338 274.96064 
L 265.068737 274.29536 
L 266.259138 274.96064 
L 268.639938 274.96064 
L 269.830338 276.95648 
L 271.020737 276.95648 
L 272.211138 277.62176 
L 273.401538 278.95232 
L 275.782338 278.95232 
L 276.972737 280.28288 
L 279.353538 280.28288 
L 280.543938 280.94816 
L 282.924738 279.6176 
L 285.305538 279.6176 
L 286.495938 278.95232 
L 287.686338 279.6176 
L 291.257538 279.6176 
L 292.447938 280.28288 
L 294.828738 280.28288 
L 296.019138 280.94816 
L 298.399938 280.94816 
L 299.590338 281.61344 
L 301.971138 280.28288 
L 303.161538 280.94816 
L 304.351938 280.94816 
L 305.542338 280.28288 
L 306.732737 280.94816 
L 307.923138 280.94816 
L 309.113538 280.28288 
L 310.303938 280.94816 
L 311.494338 280.94816 
L 312.684738 280.28288 
L 315.065538 281.61344 
L 316.255938 280.94816 
L 325.779138 280.94816 
L 328.159938 279.6176 
L 329.350338 279.6176 
L 335.302338 276.2912 
L 336.492738 276.95648 
L 337.683138 276.95648 
L 338.873537 275.62592 
L 340.063938 275.62592 
L 341.254338 274.96064 
L 342.444738 274.96064 
L 344.825537 276.2912 
L 346.015938 275.62592 
L 347.206338 274.29536 
L 348.396738 275.62592 
L 349.587138 275.62592 
L 350.777537 276.2912 
L 351.967938 271.63424 
L 353.158338 269.6384 
L 354.348738 270.96896 
L 355.539138 272.9648 
L 356.729537 274.29536 
L 357.919938 274.96064 
L 359.110338 274.96064 
L 360.300738 272.9648 
L 361.491138 272.9648 
L 362.681537 273.63008 
L 363.871938 269.6384 
L 365.062338 269.6384 
L 366.252738 270.30368 
L 367.443138 271.63424 
L 369.823938 272.9648 
L 372.204738 271.63424 
L 373.395138 272.29952 
L 374.585538 271.63424 
L 378.156738 273.63008 
L 379.347138 273.63008 
L 381.727938 274.96064 
L 384.108738 274.96064 
L 385.299138 275.62592 
L 388.870338 275.62592 
L 391.251138 276.95648 
L 392.441538 275.62592 
L 393.631938 276.95648 
L 394.822338 276.95648 
L 396.012738 276.2912 
L 397.203138 277.62176 
L 399.583938 276.2912 
L 400.774338 277.62176 
L 401.964738 277.62176 
L 403.155138 276.95648 
L 404.345538 277.62176 
L 404.345538 277.62176 
" clip-path="url(#p3f4674b181)" style="fill: none; stroke: #4d85bd; stroke-width: 1.3; stroke-linecap: square"/>
   </g>
   <g id="line2d_19">
    <path d="M 48.415938 276.95648 
L 49.606338 276.2912 
L 50.796738 274.96064 
L 51.987138 276.95648 
L 53.177538 276.2912 
L 54.367938 274.96064 
L 55.558338 276.2912 
L 56.748738 276.2912 
L 57.939138 277.62176 
L 59.129538 275.62592 
L 60.319938 277.62176 
L 61.510338 276.2912 
L 62.700738 274.29536 
L 63.891138 276.2912 
L 65.081538 276.95648 
L 66.271938 276.95648 
L 67.462338 276.2912 
L 69.843138 276.2912 
L 71.033538 275.62592 
L 80.556738 275.62592 
L 81.747138 274.96064 
L 82.937538 274.96064 
L 88.889538 271.63424 
L 91.270338 271.63424 
L 92.460738 270.96896 
L 93.651138 270.96896 
L 94.841538 271.63424 
L 96.031938 270.96896 
L 99.603138 270.96896 
L 100.793538 270.30368 
L 101.983938 270.30368 
L 103.174338 270.96896 
L 106.745538 270.96896 
L 107.935938 271.63424 
L 110.316738 274.29536 
L 111.507138 274.29536 
L 112.697538 272.9648 
L 113.887938 272.9648 
L 115.078338 273.63008 
L 116.268738 272.9648 
L 117.459138 272.9648 
L 119.839938 274.29536 
L 121.030338 272.9648 
L 125.791938 272.9648 
L 129.363138 274.96064 
L 130.553538 276.95648 
L 132.934338 276.95648 
L 134.124738 278.95232 
L 135.315138 279.6176 
L 136.505538 279.6176 
L 141.267138 276.95648 
L 143.647938 274.29536 
L 146.028738 274.29536 
L 147.219138 273.63008 
L 149.599938 274.96064 
L 150.790338 274.96064 
L 151.980738 275.62592 
L 154.361538 275.62592 
L 155.551938 276.2912 
L 157.932738 274.96064 
L 159.123138 274.96064 
L 160.313538 275.62592 
L 163.884738 275.62592 
L 165.075138 276.95648 
L 171.027138 276.95648 
L 172.217538 278.28704 
L 173.407938 278.28704 
L 174.598338 278.95232 
L 175.788738 280.28288 
L 178.169538 280.28288 
L 179.359938 279.6176 
L 180.550338 278.28704 
L 181.740738 278.28704 
L 182.931138 274.96064 
L 184.121538 270.30368 
L 185.311938 268.30784 
L 186.502338 266.97728 
L 187.692738 267.64256 
L 188.883138 266.97728 
L 190.073538 266.97728 
L 191.263938 265.64672 
L 193.644738 264.31616 
L 200.787138 268.30784 
L 203.167938 268.30784 
L 205.548738 266.97728 
L 206.739138 266.97728 
L 207.929538 264.98144 
L 209.119938 262.32032 
L 210.310338 260.98976 
L 211.500738 260.32448 
L 212.691138 260.32448 
L 213.881538 258.99392 
L 215.071938 258.99392 
L 216.262338 260.32448 
L 217.452738 260.98976 
L 218.643138 259.6592 
L 219.833538 259.6592 
L 221.023938 258.99392 
L 222.214338 258.99392 
L 223.404738 260.32448 
L 224.595138 260.98976 
L 225.785538 262.32032 
L 226.975938 264.31616 
L 228.166338 264.98144 
L 229.356738 264.31616 
L 230.547138 262.9856 
L 231.737538 262.32032 
L 232.927938 262.32032 
L 234.118338 262.9856 
L 235.308738 264.31616 
L 236.499138 264.31616 
L 237.689538 264.98144 
L 241.260738 264.98144 
L 242.451138 265.64672 
L 243.641538 266.97728 
L 246.022338 268.30784 
L 247.212738 269.6384 
L 249.593538 268.30784 
L 251.974338 269.6384 
L 253.164738 268.30784 
L 254.355138 268.30784 
L 255.545538 268.97312 
L 259.116737 268.97312 
L 260.307138 269.6384 
L 262.687938 269.6384 
L 263.878338 268.97312 
L 265.068737 270.30368 
L 267.449538 270.30368 
L 268.639938 269.6384 
L 269.830338 270.30368 
L 272.211138 270.30368 
L 273.401538 270.96896 
L 276.972737 268.97312 
L 279.353538 270.30368 
L 282.924738 270.30368 
L 285.305538 268.97312 
L 286.495938 269.6384 
L 287.686338 270.96896 
L 288.876738 271.63424 
L 290.067138 271.63424 
L 291.257538 272.29952 
L 292.447938 271.63424 
L 294.828738 268.97312 
L 297.209538 264.98144 
L 298.399938 264.31616 
L 299.590338 266.97728 
L 300.780738 270.30368 
L 301.971138 271.63424 
L 303.161538 273.63008 
L 304.351938 274.29536 
L 306.732737 276.95648 
L 310.303938 276.95648 
L 311.494338 276.2912 
L 312.684738 276.2912 
L 313.875138 275.62592 
L 316.255938 275.62592 
L 317.446338 276.2912 
L 324.588738 276.2912 
L 325.779138 276.95648 
L 326.969538 276.2912 
L 334.111938 276.2912 
L 335.302338 276.95648 
L 337.683138 276.95648 
L 338.873537 274.96064 
L 340.063938 268.97312 
L 341.254338 266.97728 
L 342.444738 266.312 
L 343.635138 268.30784 
L 346.015938 266.97728 
L 348.396738 272.29952 
L 349.587138 270.30368 
L 350.777537 270.96896 
L 351.967938 273.63008 
L 353.158338 276.95648 
L 354.348738 278.95232 
L 355.539138 278.95232 
L 356.729537 278.28704 
L 357.919938 278.28704 
L 359.110338 277.62176 
L 360.300738 277.62176 
L 361.491138 276.95648 
L 362.681537 274.29536 
L 363.871938 275.62592 
L 365.062338 275.62592 
L 366.252738 276.2912 
L 367.443138 276.2912 
L 368.633538 274.96064 
L 369.823938 274.29536 
L 371.014338 277.62176 
L 372.204738 278.95232 
L 373.395138 278.28704 
L 374.585538 279.6176 
L 375.775938 279.6176 
L 376.966338 275.62592 
L 378.156738 276.2912 
L 379.347138 277.62176 
L 380.537538 276.95648 
L 381.727938 274.29536 
L 382.918338 274.96064 
L 384.108738 274.96064 
L 385.299138 276.2912 
L 387.679938 276.2912 
L 388.870338 276.95648 
L 390.060738 279.6176 
L 391.251138 278.28704 
L 393.631938 280.94816 
L 394.822338 278.28704 
L 396.012738 276.2912 
L 397.203138 276.2912 
L 398.393538 275.62592 
L 399.583938 276.2912 
L 400.774338 275.62592 
L 401.964738 277.62176 
L 403.155138 278.95232 
L 404.345538 278.28704 
L 404.345538 278.28704 
" clip-path="url(#p3f4674b181)" style="fill: none; stroke: #59a95a; stroke-width: 1.3; stroke-linecap: square"/>
   </g>
   <g id="patch_3">
    <path d="M 48.415938 292.9232 
L 48.415938 26.8112 
" style="fill: none; stroke: #000000; stroke-width: 0.8; stroke-linejoin: miter; stroke-linecap: square"/>
   </g>
   <g id="patch_4">
    <path d="M 48.415938 292.9232 
L 405.535938 292.9232 
" style="fill: none; stroke: #000000; stroke-width: 0.8; stroke-linejoin: miter; stroke-linecap: square"/>
   </g>
   <g id="legend_1">
    <g id="line2d_20">
     <path d="M 111.012738 17.7 
L 125.012738 17.7 
L 139.012738 17.7 
" style="fill: none; stroke: #f7903d; stroke-width: 1.3; stroke-linecap: square"/>
    </g>
    <g id="text_19">
     <!-- MP1 -->
     <g transform="translate(150.212738 22.6)scale(0.14 -0.14)">
      <defs>
       <path id="TimesNewRomanPSMT-4d" d="M 2619 0 
L 981 3566 
L 981 734 
Q 981 344 1066 247 
Q 1181 116 1431 116 
L 1581 116 
L 1581 0 
L 106 0 
L 106 116 
L 256 116 
Q 525 116 638 278 
Q 706 378 706 734 
L 706 3503 
Q 706 3784 644 3909 
Q 600 4000 483 4061 
Q 366 4122 106 4122 
L 106 4238 
L 1306 4238 
L 2844 922 
L 4356 4238 
L 5556 4238 
L 5556 4122 
L 5409 4122 
Q 5138 4122 5025 3959 
Q 4956 3859 4956 3503 
L 4956 734 
Q 4956 344 5044 247 
Q 5159 116 5409 116 
L 5556 116 
L 5556 0 
L 3756 0 
L 3756 116 
L 3906 116 
Q 4178 116 4288 278 
Q 4356 378 4356 734 
L 4356 3566 
L 2722 0 
L 2619 0 
z
" transform="scale(0.015625)"/>
       <path id="TimesNewRomanPSMT-50" d="M 1313 1984 
L 1313 750 
Q 1313 350 1400 253 
Q 1519 116 1759 116 
L 1922 116 
L 1922 0 
L 106 0 
L 106 116 
L 266 116 
Q 534 116 650 291 
Q 713 388 713 750 
L 713 3488 
Q 713 3888 628 3984 
Q 506 4122 266 4122 
L 106 4122 
L 106 4238 
L 1659 4238 
Q 2228 4238 2556 4120 
Q 2884 4003 3109 3725 
Q 3334 3447 3334 3066 
Q 3334 2547 2992 2222 
Q 2650 1897 2025 1897 
Q 1872 1897 1694 1919 
Q 1516 1941 1313 1984 
z
M 1313 2163 
Q 1478 2131 1606 2115 
Q 1734 2100 1825 2100 
Q 2150 2100 2386 2351 
Q 2622 2603 2622 3003 
Q 2622 3278 2509 3514 
Q 2397 3750 2190 3867 
Q 1984 3984 1722 3984 
Q 1563 3984 1313 3925 
L 1313 2163 
z
" transform="scale(0.015625)"/>
      </defs>
      <use xlink:href="#TimesNewRomanPSMT-4d"/>
      <use xlink:href="#TimesNewRomanPSMT-50" x="88.916016"/>
      <use xlink:href="#TimesNewRomanPSMT-31" x="144.53125"/>
     </g>
    </g>
    <g id="line2d_21">
     <path d="M 205.447113 17.7 
L 219.447113 17.7 
L 233.447113 17.7 
" style="fill: none; stroke: #4d85bd; stroke-width: 1.3; stroke-linecap: square"/>
    </g>
    <g id="text_20">
     <!-- MP2 -->
     <g transform="translate(244.647112 22.6)scale(0.14 -0.14)">
      <use xlink:href="#TimesNewRomanPSMT-4d"/>
      <use xlink:href="#TimesNewRomanPSMT-50" x="88.916016"/>
      <use xlink:href="#TimesNewRomanPSMT-32" x="144.53125"/>
     </g>
    </g>
    <g id="line2d_22">
     <path d="M 299.881488 17.7 
L 313.881488 17.7 
L 327.881488 17.7 
" style="fill: none; stroke: #59a95a; stroke-width: 1.3; stroke-linecap: square"/>
    </g>
    <g id="text_21">
     <!-- MP3 -->
     <g transform="translate(339.081488 22.6)scale(0.14 -0.14)">
      <use xlink:href="#TimesNewRomanPSMT-4d"/>
      <use xlink:href="#TimesNewRomanPSMT-50" x="88.916016"/>
      <use xlink:href="#TimesNewRomanPSMT-33" x="144.53125"/>
     </g>
    </g>
   </g>
  </g>
 </g>
 <defs>
  <clipPath id="p3f4674b181">
   <rect x="48.415938" y="26.8112" width="357.12" height="266.112"/>
  </clipPath>
 </defs>
</svg>
